<svg width="40" height="55" viewBox="0 0 40 55" fill="none" xmlns="http://www.w3.org/2000/svg">
<path d="M0 2.08346L0 52.7C0 53.6318 0.778635 54.3872 1.73913 54.3872H38.2609C39.2214 54.3872 40 53.6318 40 52.7V2.08346C40 1.15163 39.2214 0.39624 38.2609 0.39624H1.73913C0.778635 0.39624 0 1.15163 0 2.08346Z" fill="#FA5046"/>
<path d="M0.800781 53.6157L0.800781 28.9343L39.2007 28.9343V53.6157H0.800781Z" fill="#373737"/>
<path d="M0.800781 26.6201L0.800781 1.16724H17.6008V26.6201H0.800781Z" fill="#373737"/>
<path d="M19.1992 26.6201V1.16724H39.1992V26.6201H19.1992Z" fill="#373737"/>
<path d="M22.5776 11.9661H35.022C36.0039 11.9661 36.7998 11.2063 36.7998 10.2692V5.17856C36.7998 4.24141 36.0039 3.48169 35.022 3.48169H22.5776C21.5957 3.48169 20.7998 4.24141 20.7998 5.17856V10.2692C20.7998 11.2063 21.5957 11.9661 22.5776 11.9661Z" fill="#FA5046"/>
<path d="M28.7846 3.48169H27.1996C27.8617 4.74756 28.2137 6.21992 28.2137 7.72388C28.2137 9.22784 27.8617 10.7002 27.1996 11.9661H28.7846C29.3206 10.6486 29.5996 9.19629 29.5996 7.72388C29.5996 6.25146 29.3206 4.79919 28.7846 3.48169Z" fill="#FF695F"/>
<path d="M32.0004 11.9661H33.5853C34.1214 10.6486 34.4004 9.19629 34.4004 7.72388C34.4004 6.25146 34.1214 4.79919 33.5853 3.48169H32.0004C32.6625 4.74756 33.0144 6.21992 33.0144 7.72388C33.0144 9.22784 32.6625 10.7002 32.0004 11.9661Z" fill="#FF695F"/>
<path d="M24.5029 3.48169H22.8143C22.6747 3.48264 22.5356 3.49795 22.3997 3.52733C23.2705 4.78313 23.7327 6.23828 23.7327 7.72388C23.7327 9.20948 23.2705 10.6646 22.3997 11.9204C22.5356 11.9498 22.6747 11.9651 22.8143 11.9661H24.5029C25.2242 10.6486 25.5996 9.19629 25.5996 7.72388C25.5996 6.25146 25.2242 4.79919 24.5029 3.48169Z" fill="#FF695F"/>
<path d="M30.0004 44.7112V38.4005C30.0004 37.8425 30.2322 37.3075 30.6447 36.913C31.0573 36.5185 31.6169 36.2969 32.2004 36.2969C32.7839 36.2969 33.3434 36.5185 33.756 36.913C34.1686 37.3075 34.4004 37.8425 34.4004 38.4005V45.5526C34.4004 46.6684 33.9368 47.7385 33.1117 48.5275C32.2865 49.3165 31.1673 49.7598 30.0004 49.7598C28.8334 49.7598 27.7142 49.3165 26.8891 48.5275C26.0639 47.7385 25.6003 46.6684 25.6003 45.5526V35.4554C25.6003 34.3396 26.0639 33.2695 26.8891 32.4805C27.7142 31.6915 28.8334 31.2483 30.0004 31.2483C31.1673 31.2483 32.2865 31.6915 33.1117 32.4805C33.9368 33.2695 34.4004 34.3396 34.4004 35.4554V38.8212" fill="#FFE078"/>
<path d="M35.2002 35.6834V46.0961C35.2002 47.4769 34.6945 48.8012 33.7943 49.7776C32.8941 50.754 31.6732 51.3025 30.4002 51.3025C29.1271 51.3025 27.9062 50.754 27.0061 49.7776C26.1059 48.8012 25.6002 47.4769 25.6002 46.0961V35.6834C25.6002 34.3026 26.1059 32.9783 27.0061 32.002C27.9062 31.0256 29.1271 30.4771 30.4002 30.4771C31.6732 30.4771 32.8941 31.0256 33.7943 32.002C34.6945 32.9783 35.2002 34.3026 35.2002 35.6834ZM33.6002 35.9766V35.6834C33.6002 34.7629 33.263 33.88 32.6629 33.2291C32.0628 32.5782 31.2489 32.2125 30.4002 32.2125C29.5515 32.2125 28.7375 32.5782 28.1374 33.2291C27.5373 33.88 27.2002 34.7629 27.2002 35.6834V46.0961C27.2002 47.0167 27.5373 47.8995 28.1374 48.5504C28.7375 49.2014 29.5515 49.567 30.4002 49.567C31.2489 49.567 32.0628 49.2014 32.6629 48.5504C33.263 47.8995 33.6002 47.0167 33.6002 46.0961V38.7205C33.6002 38.3753 33.4738 38.0442 33.2487 37.8001C33.0237 37.556 32.7184 37.4189 32.4002 37.4189C32.0819 37.4189 31.7767 37.556 31.5517 37.8001C31.3266 38.0442 31.2002 38.3753 31.2002 38.7205V45.2284C31.2002 45.4585 31.1159 45.6792 30.9659 45.842C30.8158 46.0047 30.6124 46.0961 30.4002 46.0961C30.188 46.0961 29.9845 46.0047 29.8345 45.842C29.6845 45.6792 29.6002 45.4585 29.6002 45.2284V38.7205C29.6002 38.2081 29.7197 37.7041 29.9476 37.2553C30.1755 36.8066 30.5044 36.4276 30.9036 36.1538C31.3028 35.88 31.7594 35.7201 32.2309 35.6891C32.7024 35.6581 33.1734 35.757 33.6002 35.9766Z" fill="#FFCB1E"/>
<path d="M10.0004 44.7112V38.4005C10.0004 37.8425 10.2322 37.3075 10.6447 36.913C11.0573 36.5185 11.6169 36.2969 12.2004 36.2969C12.7839 36.2969 13.3434 36.5185 13.756 36.913C14.1686 37.3075 14.4004 37.8425 14.4004 38.4005V45.5526C14.4004 46.6684 13.9368 47.7385 13.1117 48.5275C12.2865 49.3165 11.1673 49.7598 10.0004 49.7598C8.83341 49.7598 7.71424 49.3165 6.88908 48.5275C6.06391 47.7385 5.60034 46.6684 5.60034 45.5526V35.4554C5.60034 34.3396 6.06391 33.2695 6.88908 32.4805C7.71424 31.6915 8.83341 31.2483 10.0004 31.2483C11.1673 31.2483 12.2865 31.6915 13.1117 32.4805C13.9368 33.2695 14.4004 34.3396 14.4004 35.4554V38.8212" fill="#FFE078"/>
<path d="M14.4004 35.6834L14.4004 46.0961C14.4004 47.4769 13.8947 48.8012 12.9945 49.7776C12.0943 50.754 10.8734 51.3025 9.60037 51.3025C8.32733 51.3025 7.10642 50.754 6.20625 49.7776C5.30607 48.8012 4.80035 47.4769 4.80035 46.0961L4.80035 35.6834C4.80035 34.3026 5.30607 32.9783 6.20625 32.002C7.10642 31.0256 8.32733 30.4771 9.60037 30.4771C10.8734 30.4771 12.0943 31.0256 12.9945 32.002C13.8947 32.9783 14.4004 34.3026 14.4004 35.6834ZM12.8004 35.9766V35.6834C12.8004 34.7629 12.4632 33.88 11.8631 33.2291C11.263 32.5782 10.4491 32.2125 9.60037 32.2125C8.75168 32.2125 7.93774 32.5782 7.33762 33.2291C6.7375 33.88 6.40036 34.7629 6.40036 35.6834L6.40036 46.0961C6.40036 47.0167 6.7375 47.8995 7.33762 48.5504C7.93774 49.2014 8.75168 49.567 9.60037 49.567C10.4491 49.567 11.263 49.2014 11.8631 48.5504C12.4632 47.8995 12.8004 47.0167 12.8004 46.0961V38.7205C12.8004 38.3753 12.674 38.0442 12.4489 37.8001C12.2239 37.556 11.9186 37.4189 11.6004 37.4189C11.2821 37.4189 10.9769 37.556 10.7518 37.8001C10.5268 38.0442 10.4004 38.3753 10.4004 38.7205V45.2284C10.4004 45.4585 10.3161 45.6792 10.1661 45.842C10.016 46.0047 9.81255 46.0961 9.60037 46.0961C9.3882 46.0961 9.18471 46.0047 9.03468 45.842C8.88465 45.6792 8.80037 45.4585 8.80037 45.2284V38.7205C8.80039 38.2081 8.91991 37.7041 9.1478 37.2553C9.3757 36.8066 9.70455 36.4276 10.1038 36.1538C10.503 35.88 10.9596 35.7201 11.4311 35.6891C11.9026 35.6581 12.3736 35.757 12.8004 35.9766Z" fill="#FFCB1E"/>
<path d="M19.9998 44.7112V38.4005C19.9998 37.8425 20.2526 37.3075 20.7027 36.913C21.1528 36.5185 21.7633 36.2969 22.3998 36.2969C23.0363 36.2969 23.6468 36.5185 24.0969 36.913C24.5469 37.3075 24.7998 37.8425 24.7998 38.4005V45.5526C24.7998 46.6684 24.2941 47.7385 23.3939 48.5275C22.4937 49.3165 21.2728 49.7598 19.9998 49.7598C18.7267 49.7598 17.5058 49.3165 16.6057 48.5275C15.7055 47.7385 15.1998 46.6684 15.1998 45.5526V35.4554C15.1998 34.3396 15.7055 33.2695 16.6057 32.4805C17.5058 31.6915 18.7267 31.2483 19.9998 31.2483C21.2728 31.2483 22.4937 31.6915 23.3939 32.4805C24.2941 33.2695 24.7998 34.3396 24.7998 35.4554V38.8212" fill="#FFE078"/>
<path d="M25.5996 35.6834V46.0961C25.5996 47.4769 25.0096 48.8012 23.9594 49.7776C22.9092 50.754 21.4848 51.3025 19.9996 51.3025C18.5144 51.3025 17.0901 50.754 16.0399 49.7776C14.9897 48.8012 14.3997 47.4769 14.3997 46.0961L14.3997 35.6834C14.3997 34.3026 14.9897 32.9783 16.0399 32.002C17.0901 31.0256 18.5144 30.4771 19.9996 30.4771C21.4848 30.4771 22.9092 31.0256 23.9594 32.002C25.0096 32.9783 25.5996 34.3026 25.5996 35.6834ZM23.733 35.9766V35.6834C23.733 34.7629 23.3396 33.88 22.6395 33.2291C21.9394 32.5782 20.9898 32.2125 19.9996 32.2125C19.0095 32.2125 18.0599 32.5782 17.3598 33.2291C16.6596 33.88 16.2663 34.7629 16.2663 35.6834V46.0961C16.2663 47.0167 16.6596 47.8995 17.3598 48.5504C18.0599 49.2014 19.0095 49.567 19.9996 49.567C20.9898 49.567 21.9394 49.2014 22.6395 48.5504C23.3396 47.8995 23.733 47.0167 23.733 46.0961V38.7205C23.733 38.3753 23.5855 38.0442 23.3229 37.8001C23.0604 37.556 22.7043 37.4189 22.333 37.4189C21.9617 37.4189 21.6056 37.556 21.343 37.8001C21.0805 38.0442 20.933 38.3753 20.933 38.7205V45.2284C20.933 45.4585 20.8346 45.6792 20.6596 45.842C20.4846 46.0047 20.2472 46.0961 19.9996 46.0961C19.7521 46.0961 19.5147 46.0047 19.3397 45.842C19.1646 45.6792 19.0663 45.4585 19.0663 45.2284V38.7205C19.0663 38.2081 19.2058 37.7041 19.4716 37.2553C19.7375 36.8066 20.1212 36.4276 20.5869 36.1538C21.0527 35.88 21.5854 35.7201 22.1354 35.6891C22.6855 35.6581 23.2351 35.757 23.733 35.9766Z" fill="#FFCB1E"/>
<path d="M10.0004 5.79517C7.5703 5.79517 5.60034 7.6944 5.60034 10.0372C5.60034 12.3801 7.5703 14.2793 10.0004 14.2793C12.4304 14.2793 14.4004 12.3801 14.4004 10.0372C14.4004 7.6944 12.4304 5.79517 10.0004 5.79517Z" fill="#B4E696"/>
<path d="M9.20019 3.4812C10.3869 3.4812 11.5469 3.82047 12.5336 4.45611C13.5203 5.09176 14.2893 5.99522 14.7435 7.05225C15.1976 8.10928 15.3164 9.27241 15.0849 10.3945C14.8534 11.5167 14.2819 12.5474 13.4428 13.3565C12.6037 14.1655 11.5346 14.7164 10.3707 14.9396C9.20685 15.1628 8.00045 15.0483 6.90409 14.6104C5.80774 14.1726 4.87067 13.4312 4.21138 12.4798C3.55209 11.5285 3.2002 10.4101 3.2002 9.26599C3.20194 7.73229 3.83464 6.26188 4.95948 5.17739C6.08432 4.09289 7.60943 3.48289 9.20019 3.4812ZM9.20019 13.398C10.0478 13.398 10.8764 13.1556 11.5812 12.7016C12.286 12.2476 12.8353 11.6023 13.1597 10.8472C13.4841 10.0922 13.5689 9.2614 13.4036 8.45988C13.2382 7.65835 12.83 6.9221 12.2307 6.34423C11.6313 5.76636 10.8676 5.37283 10.0363 5.21339C9.20495 5.05396 8.34323 5.13579 7.56012 5.44853C6.77701 5.76127 6.10767 6.29088 5.63675 6.97038C5.16583 7.64988 4.91448 8.44876 4.91448 9.26599C4.91568 10.3615 5.3676 11.4118 6.17106 12.1865C6.97453 12.9611 8.06392 13.3968 9.20019 13.398Z" fill="#8CD25F"/>
<path d="M10.375 9.67554V11.363C10.375 11.5868 10.2828 11.8014 10.1187 11.9597C9.95462 12.1179 9.73206 12.2068 9.5 12.2068C9.26794 12.2068 9.04538 12.1179 8.88128 11.9597C8.71719 11.8014 8.625 11.5868 8.625 11.363V9.67554H10.375Z" fill="#DCFFBB"/>
<path d="M9.76953 8.87012L11.4338 9.39155C11.6545 9.4607 11.8376 9.61155 11.943 9.81093C12.0483 10.0103 12.0672 10.2419 11.9955 10.4547C11.9238 10.6675 11.7674 10.8441 11.5606 10.9457C11.3539 11.0473 11.1137 11.0655 10.893 10.9964L9.22878 10.4749L9.76953 8.87012Z" fill="#DCFFBB"/>
<path d="M8.7998 9.18945L9.82869 7.82442C9.96513 7.6434 10.1705 7.52207 10.3998 7.4871C10.629 7.45214 10.8632 7.50641 11.0509 7.63797C11.2386 7.76954 11.3645 7.96762 11.4007 8.18865C11.437 8.40968 11.3807 8.63554 11.2443 8.81656L10.2154 10.1816L8.7998 9.18945Z" fill="#DCFFBB"/>
<path d="M8.7832 10.1626L7.75432 8.79756C7.61788 8.61655 7.5616 8.39068 7.59786 8.16966C7.63412 7.94863 7.75995 7.75054 7.94767 7.61898C8.13539 7.48741 8.36962 7.43314 8.59884 7.46811C8.82805 7.50307 9.03347 7.62441 9.16991 7.80543L10.1988 9.17046L8.7832 10.1626Z" fill="#DCFFBB"/>
<path d="M9.77344 10.48L8.10919 11.0014C7.88849 11.0706 7.64836 11.0523 7.4416 10.9508C7.23484 10.8492 7.0784 10.6725 7.00669 10.4597C6.93498 10.2469 6.95388 10.0154 7.05923 9.81598C7.16458 9.6166 7.34774 9.46575 7.56844 9.39661L9.23269 8.87517L9.77344 10.48Z" fill="#DCFFBB"/>
<path d="M10.0004 15.0513C7.5703 15.0513 5.60034 17.1232 5.60034 19.679C5.60034 22.2348 7.5703 24.3066 10.0004 24.3066C12.4304 24.3066 14.4004 22.2348 14.4004 19.679C14.4004 17.1232 12.4304 15.0513 10.0004 15.0513Z" fill="#B4E696"/>
<path d="M9.20019 14.2795C10.3869 14.2795 11.5469 14.6188 12.5336 15.2545C13.5203 15.8901 14.2893 16.7936 14.7435 17.8507C15.1976 18.9077 15.3164 20.0709 15.0849 21.193C14.8534 22.3152 14.2819 23.346 13.4428 24.155C12.6037 24.964 11.5346 25.515 10.3707 25.7382C9.20685 25.9614 8.00045 25.8469 6.90409 25.409C5.80774 24.9712 4.87067 24.2297 4.21138 23.2784C3.55209 22.3271 3.2002 21.2086 3.2002 20.0645C3.20194 18.5307 3.83464 17.0603 4.95948 15.9758C6.08432 14.8912 7.60943 14.2812 9.20019 14.2795ZM9.20019 24.1965C10.0478 24.1965 10.8764 23.9542 11.5812 23.5002C12.286 23.0461 12.8353 22.4008 13.1597 21.6457C13.4841 20.8907 13.5689 20.0599 13.4036 19.2583C13.2382 18.4568 12.83 17.7205 12.2307 17.1426C11.6313 16.5647 10.8676 16.1712 10.0363 16.0118C9.20495 15.8523 8.34323 15.9342 7.56012 16.2469C6.77701 16.5597 6.10767 17.0893 5.63675 17.7688C5.16583 18.4483 4.91448 19.2472 4.91448 20.0645C4.91568 21.16 5.3676 22.2103 6.17106 22.985C6.97453 23.7597 8.06392 24.1954 9.20019 24.1965Z" fill="#8CD25F"/>
<path d="M10.4004 19.6787V21.2216C10.4004 21.4262 10.274 21.6224 10.0489 21.7671C9.82388 21.9117 9.51865 21.993 9.20039 21.993C8.88213 21.993 8.57691 21.9117 8.35186 21.7671C8.12682 21.6224 8.00039 21.4262 8.00039 21.2216V19.6787H10.4004Z" fill="#DCFFBB"/>
<path d="M9.76855 18.9949L11.4328 19.5162C11.6535 19.5853 11.8367 19.7362 11.942 19.9356C12.0474 20.1349 12.0663 20.3665 11.9946 20.5793C11.9228 20.7921 11.7664 20.9687 11.5596 21.0703C11.3528 21.1719 11.1127 21.1901 10.892 21.121L9.22771 20.5997L9.76855 18.9949Z" fill="#DCFFBB"/>
<path d="M8.7998 19.3113L9.82877 17.9463C9.96522 17.7653 10.1707 17.644 10.3999 17.609C10.6291 17.574 10.8634 17.6283 11.0511 17.7599C11.2388 17.8914 11.3646 18.0895 11.4009 18.3105C11.4372 18.5315 11.3809 18.7574 11.2444 18.9384L10.2155 20.3033L8.7998 19.3113Z" fill="#DCFFBB"/>
<path d="M8.7832 20.2876L7.75424 18.9226C7.61779 18.7416 7.5615 18.5158 7.59776 18.2948C7.63401 18.0737 7.75985 17.8757 7.94758 17.7441C8.1353 17.6126 8.36955 17.5583 8.59877 17.5933C8.828 17.6282 9.03344 17.7496 9.16989 17.9306L10.1989 19.2955L8.7832 20.2876Z" fill="#DCFFBB"/>
<path d="M9.77246 20.603L8.10818 21.1244C7.88748 21.1935 7.64734 21.1753 7.44057 21.0737C7.2338 20.9721 7.07734 20.7955 7.00562 20.5827C6.9339 20.3698 6.95279 20.1383 7.05813 19.9389C7.16347 19.7396 7.34664 19.5887 7.56733 19.5196L9.23161 18.9982L9.77246 20.603Z" fill="#DCFFBB"/>
<path d="M35.2002 21.001V16.0427C35.2002 15.166 34.8209 14.3252 34.1458 13.7052C33.4706 13.0853 32.555 12.7371 31.6002 12.7371C30.6454 12.7371 29.7297 13.0853 29.0546 13.7052C28.3795 14.3252 28.0002 15.166 28.0002 16.0427V21.001C28.0002 21.8777 28.3795 22.7185 29.0546 23.3385C29.7297 23.9584 30.6454 24.3066 31.6002 24.3066C32.555 24.3066 33.4706 23.9584 34.1458 23.3385C34.8209 22.7185 35.2002 21.8777 35.2002 21.001Z" fill="#F5FCFC"/>
<path d="M31.9998 25.8494C30.7272 25.848 29.5072 25.3905 28.6073 24.5771C27.7075 23.7638 27.2013 22.661 27.1998 21.5108V16.3044C27.2013 15.1542 27.7075 14.0514 28.6073 13.2381C29.5072 12.4247 30.7272 11.9672 31.9998 11.9658C33.2724 11.9672 34.4924 12.4247 35.3923 13.2381C36.2921 14.0514 36.7983 15.1542 36.7998 16.3044V21.5108C36.7983 22.661 36.2921 23.7638 35.3923 24.5771C34.4924 25.3905 33.2724 25.848 31.9998 25.8494ZM29.1198 21.5108C29.1206 22.2009 29.4243 22.8626 29.9642 23.3506C30.5042 23.8387 31.2362 24.1132 31.9998 24.1139C32.7634 24.1132 33.4954 23.8387 34.0353 23.3506C34.5753 22.8626 34.879 22.2009 34.8798 21.5108V16.3044C34.879 15.6143 34.5753 14.9526 34.0353 14.4645C33.4954 13.9765 32.7634 13.702 31.9998 13.7013C31.2362 13.702 30.5042 13.9765 29.9642 14.4645C29.4243 14.9526 29.1206 15.6143 29.1198 16.3044V21.5108Z" fill="#4D4D4D"/>
<path d="M33.2004 14.2787C32.5376 14.2787 32.0004 15.3148 32.0004 16.5929C32.0004 17.8711 32.5376 18.9072 33.2004 18.9072C33.8631 18.9072 34.4004 17.8711 34.4004 16.5929C34.4004 15.3148 33.8631 14.2787 33.2004 14.2787Z" fill="#FF9119"/>
<path d="M33.2004 19.6775C32.5376 19.6775 32.0004 20.541 32.0004 21.6061C32.0004 22.6712 32.5376 23.5347 33.2004 23.5347C33.8631 23.5347 34.4004 22.6712 34.4004 21.6061C34.4004 20.541 33.8631 19.6775 33.2004 19.6775Z" fill="#FA5046"/>
<path d="M33.2004 17.364C32.5376 17.364 32.0004 18.2275 32.0004 19.2926C32.0004 20.3577 32.5376 21.2212 33.2004 21.2212C33.8631 21.2212 34.4004 20.3577 34.4004 19.2926C34.4004 18.2275 33.8631 17.364 33.2004 17.364Z" fill="#FF7D14"/>
<path d="M28 21.001V16.0427C28 15.166 27.6207 14.3252 26.9456 13.7052C26.2704 13.0853 25.3548 12.7371 24.4 12.7371C23.4452 12.7371 22.5295 13.0853 21.8544 13.7052C21.1793 14.3252 20.8 15.166 20.8 16.0427V21.001C20.8 21.8777 21.1793 22.7185 21.8544 23.3385C22.5295 23.9584 23.4452 24.3066 24.4 24.3066C25.3548 24.3066 26.2704 23.9584 26.9456 23.3385C27.6207 22.7185 28 21.8777 28 21.001Z" fill="#F5FCFC"/>
<path d="M25.1996 25.8494C24.0331 25.848 22.9147 25.3905 22.0899 24.5771C21.265 23.7638 20.801 22.661 20.7996 21.5108V16.3044C20.801 15.1542 21.265 14.0514 22.0899 13.2381C22.9147 12.4247 24.0331 11.9672 25.1996 11.9658C26.3661 11.9672 27.4845 12.4247 28.3094 13.2381C29.1342 14.0514 29.5982 15.1542 29.5996 16.3044V21.5108C29.5982 22.661 29.1342 23.7638 28.3094 24.5771C27.4845 25.3905 26.3661 25.848 25.1996 25.8494ZM22.5596 21.5108C22.5604 22.2009 22.8388 22.8626 23.3337 23.3506C23.8286 23.8387 24.4997 24.1132 25.1996 24.1139C25.8995 24.1132 26.5706 23.8387 27.0655 23.3506C27.5605 22.8626 27.8388 22.2009 27.8396 21.5108V16.3044C27.8388 15.6143 27.5605 14.9526 27.0655 14.4645C26.5706 13.9765 25.8995 13.702 25.1996 13.7013C24.4997 13.702 23.8286 13.9765 23.3337 14.4645C22.8388 14.9526 22.5604 15.6143 22.5596 16.3044V21.5108Z" fill="#4D4D4D"/>
<path d="M26.0002 14.2787C25.3375 14.2787 24.8002 15.3148 24.8002 16.5929C24.8002 17.8711 25.3375 18.9072 26.0002 18.9072C26.6629 18.9072 27.2002 17.8711 27.2002 16.5929C27.2002 15.3148 26.6629 14.2787 26.0002 14.2787Z" fill="#FF9119"/>
<path d="M26.0002 19.6775C25.3375 19.6775 24.8002 20.541 24.8002 21.6061C24.8002 22.6712 25.3375 23.5347 26.0002 23.5347C26.6629 23.5347 27.2002 22.6712 27.2002 21.6061C27.2002 20.541 26.6629 19.6775 26.0002 19.6775Z" fill="#FA5046"/>
<path d="M26.0002 17.364C25.3375 17.364 24.8002 18.2275 24.8002 19.2926C24.8002 20.3577 25.3375 21.2212 26.0002 21.2212C26.6629 21.2212 27.2002 20.3577 27.2002 19.2926C27.2002 18.2275 26.6629 17.364 26.0002 17.364Z" fill="#FF7D14"/>
<path d="M23.9996 18.9065C23.116 18.9065 22.3996 19.5972 22.3996 20.4493C22.3996 21.3014 23.116 21.9922 23.9996 21.9922C24.8833 21.9922 25.5996 21.3014 25.5996 20.4493C25.5996 19.5972 24.8833 18.9065 23.9996 18.9065Z" fill="#FF9119"/>
<path d="M23.9996 15.0501C23.116 15.0501 22.3996 15.9135 22.3996 16.9787C22.3996 18.0438 23.116 18.9072 23.9996 18.9072C24.8833 18.9072 25.5996 18.0438 25.5996 16.9787C25.5996 15.9135 24.8833 15.0501 23.9996 15.0501Z" fill="#FA5046"/>
<path d="M31.1998 18.9065C30.3161 18.9065 29.5998 19.5972 29.5998 20.4493C29.5998 21.3014 30.3161 21.9922 31.1998 21.9922C32.0835 21.9922 32.7998 21.3014 32.7998 20.4493C32.7998 19.5972 32.0835 18.9065 31.1998 18.9065Z" fill="#FF9119"/>
<path d="M31.1998 15.0501C30.3161 15.0501 29.5998 15.9135 29.5998 16.9787C29.5998 18.0438 30.3161 18.9072 31.1998 18.9072C32.0835 18.9072 32.7998 18.0438 32.7998 16.9787C32.7998 15.9135 32.0835 15.0501 31.1998 15.0501Z" fill="#FA5046"/>
</svg>
