<svg width="50" height="55" viewBox="0 0 50 55" fill="none" xmlns="http://www.w3.org/2000/svg">
<path d="M0 18.7327V38.341C0 44.5709 10.7781 50.0264 18.1805 53.0382C22.5572 54.8369 27.4429 54.8369 31.8196 53.0382C39.222 50.0264 50 44.5708 50 38.341V18.7327H0Z" fill="#373737"/>
<path d="M25 31.9761C23.0165 31.9768 21.0461 31.642 19.1667 30.9849C16.2998 29.9821 2 24.6574 2 18.2234C2 11.792 16.2998 6.46466 19.1662 5.46273C22.9506 4.14034 27.0488 4.14002 30.8333 5.46181C33.7002 6.46466 48 11.792 48 18.2234C48 24.6574 33.7002 29.9821 30.8333 30.9849C28.9539 31.642 26.9835 31.9768 25 31.9761Z" fill="#E9F4F3"/>
<path d="M25 7.16764C26.808 7.16739 28.6039 7.47374 30.3171 8.07462C36.6632 10.3019 46.4286 15.0611 46.4286 19.2422C46.4286 23.4232 36.6632 28.1825 30.3171 30.4097C26.8677 31.6191 23.1324 31.6191 19.6831 30.4097C13.3368 28.1825 3.57143 23.4233 3.57143 19.2422C3.57143 15.0611 13.3368 10.3019 19.6829 8.07462C21.3961 7.47375 23.192 7.16741 25 7.16764ZM25 3.45239C22.8038 3.4514 20.6222 3.82361 18.5413 4.55434C12.9664 6.51097 0 11.8587 0 19.2422C0 26.6257 12.9665 31.9735 18.5413 33.93C22.7313 35.3993 27.2688 35.3993 31.4587 33.93C37.0336 31.9735 50 26.6257 50 19.2422C50 11.8587 37.0336 6.51097 31.4587 4.55434C29.3779 3.82361 27.1962 3.4514 25 3.45239Z" fill="#4D4D4D"/>
<path d="M25.5 11.6018C28.5376 11.6018 31 9.09336 31 5.99902C31 2.90469 28.5376 0.39624 25.5 0.39624C22.4624 0.39624 20 2.90469 20 5.99902C20 9.09336 22.4624 11.6018 25.5 11.6018Z" fill="#FF7D14"/>
<path d="M25 5.49002C26.1046 5.49002 27 4.5777 27 3.45229C27 2.32688 26.1046 1.41455 25 1.41455C23.8954 1.41455 23 2.32688 23 3.45229C23 4.5777 23.8954 5.49002 25 5.49002Z" fill="#FF9119"/>
<path d="M33.5 13.6394C36.5376 13.6394 39 11.1309 39 8.0365C39 4.9421 36.5376 2.43359 33.5 2.43359C30.4624 2.43359 28 4.9421 28 8.0365C28 11.1309 30.4624 13.6394 33.5 13.6394Z" fill="#FF640A"/>
<path d="M16.5 13.6394C19.5376 13.6394 22 11.1309 22 8.0365C22 4.9421 19.5376 2.43359 16.5 2.43359C13.4624 2.43359 11 4.9421 11 8.0365C11 11.1309 13.4624 13.6394 16.5 13.6394Z" fill="#FA5046"/>
<path d="M34 7.52686C35.1046 7.52686 36 6.61476 36 5.48962C36 4.36449 35.1046 3.45239 34 3.45239C32.8954 3.45239 32 4.36449 32 5.48962C32 6.61476 32.8954 7.52686 34 7.52686Z" fill="#FF7D14"/>
<path d="M17 7.52686C18.1046 7.52686 19 6.61476 19 5.48962C19 4.36449 18.1046 3.45239 17 3.45239C15.8954 3.45239 15 4.36449 15 5.48962C15 6.61476 15.8954 7.52686 17 7.52686Z" fill="#FF695F"/>
<path d="M20.5 19.7512C23.5376 19.7512 26 17.2427 26 14.1483C26 11.0539 23.5376 8.54541 20.5 8.54541C17.4624 8.54541 15 11.0539 15 14.1483C15 17.2427 17.4624 19.7512 20.5 19.7512Z" fill="#FF640A"/>
<path d="M29.5 19.7512C32.5376 19.7512 35 17.2427 35 14.1483C35 11.0539 32.5376 8.54541 29.5 8.54541C26.4624 8.54541 24 11.0539 24 14.1483C24 17.2427 26.4624 19.7512 29.5 19.7512Z" fill="#FA5046"/>
<path d="M30 13.6399C31.1046 13.6399 32 12.7276 32 11.6022C32 10.4768 31.1046 9.56445 30 9.56445C28.8954 9.56445 28 10.4768 28 11.6022C28 12.7276 28.8954 13.6399 30 13.6399Z" fill="#FF695F"/>
<path d="M20 13.6399C21.1046 13.6399 22 12.7276 22 11.6022C22 10.4768 21.1046 9.56445 20 9.56445C18.8954 9.56445 18 10.4768 18 11.6022C18 12.7276 18.8954 13.6399 20 13.6399Z" fill="#FF7D14"/>
<path d="M38.5 20.7703C41.5376 20.7703 44 18.2618 44 15.1674C44 12.073 41.5376 9.56445 38.5 9.56445C35.4624 9.56445 33 12.073 33 15.1674C33 18.2618 35.4624 20.7703 38.5 20.7703Z" fill="#FF7D14"/>
<path d="M10.5 20.7703C13.5376 20.7703 16 18.2618 16 15.1674C16 12.073 13.5376 9.56445 10.5 9.56445C7.46243 9.56445 5 12.073 5 15.1674C5 18.2618 7.46243 20.7703 10.5 20.7703Z" fill="#FF7D14"/>
<path d="M40 14.6585C41.1046 14.6585 42 13.7462 42 12.6207C42 11.4953 41.1046 10.583 40 10.583C38.8954 10.583 38 11.4953 38 12.6207C38 13.7462 38.8954 14.6585 40 14.6585Z" fill="#FF9119"/>
<path d="M11 14.6585C12.1046 14.6585 13 13.7462 13 12.6207C13 11.4953 12.1046 10.583 11 10.583C9.89543 10.583 9 11.4953 9 12.6207C9 13.7462 9.89543 14.6585 11 14.6585Z" fill="#FF9119"/>
<path d="M34.5 24.845C37.5376 24.845 40 22.3365 40 19.2421C40 16.1477 37.5376 13.6392 34.5 13.6392C31.4624 13.6392 29 16.1477 29 19.2421C29 22.3365 31.4624 24.845 34.5 24.845Z" fill="#FF640A"/>
<path d="M16.5 24.845C19.5376 24.845 22 22.3365 22 19.2421C22 16.1477 19.5376 13.6392 16.5 13.6392C13.4624 13.6392 11 16.1477 11 19.2421C11 22.3365 13.4624 24.845 16.5 24.845Z" fill="#FA5046"/>
<path d="M34 19.752C35.1046 19.752 36 18.8397 36 17.7142C36 16.5888 35.1046 15.6765 34 15.6765C32.8954 15.6765 32 16.5888 32 17.7142C32 18.8397 32.8954 19.752 34 19.752Z" fill="#FF7D14"/>
<path d="M16 19.752C17.1046 19.752 18 18.8397 18 17.7142C18 16.5888 17.1046 15.6765 16 15.6765C14.8954 15.6765 14 16.5888 14 17.7142C14 18.8397 14.8954 19.752 16 19.752Z" fill="#FF695F"/>
<path d="M25.5 27.9011C28.5376 27.9011 31 25.3926 31 22.2982C31 19.2038 28.5376 16.6953 25.5 16.6953C22.4624 16.6953 20 19.2038 20 22.2982C20 25.3926 22.4624 27.9011 25.5 27.9011Z" fill="#FF7D14"/>
<path d="M25 21.7896C26.1046 21.7896 27 20.8773 27 19.7518C27 18.6264 26.1046 17.7141 25 17.7141C23.8954 17.7141 23 18.6264 23 19.7518C23 20.8773 23.8954 21.7896 25 21.7896Z" fill="#FF9119"/>
</svg>
