<svg width="54" height="54" viewBox="0 0 54 54" fill="none" xmlns="http://www.w3.org/2000/svg">
<g clip-path="url(#clip0_35_507)">
<path d="M49.7812 48.0938H32.9062C31.7874 48.0938 30.7143 47.6493 29.9231 46.8581C29.132 46.0669 28.6875 44.9939 28.6875 43.875V34.5938H54V43.875C54 44.9939 53.5555 46.0669 52.7644 46.8581C51.9732 47.6493 50.9001 48.0938 49.7812 48.0938Z" fill="#373737"/>
<path d="M49.7812 31.2483H32.9062C31.0423 31.2483 29.5312 32.7593 29.5312 34.6233C29.5312 36.4873 31.0423 37.9983 32.9062 37.9983H49.7812C51.6452 37.9983 53.1562 36.4873 53.1562 34.6233C53.1562 32.7593 51.6452 31.2483 49.7812 31.2483Z" fill="#F5FCFC"/>
<path d="M32.9058 30.375C32.3168 30.375 31.7343 30.4984 31.1959 30.7371C30.6575 30.9758 30.175 31.3246 29.7795 31.761C29.384 32.1974 29.0842 32.7118 28.8995 33.2711C28.7147 33.8303 28.6491 34.4221 28.7068 35.0082C28.8392 36.0709 29.3596 37.0472 30.1682 37.7495C30.9767 38.4517 32.0163 38.8303 33.0871 38.8125H49.7808C50.8996 38.8125 51.9727 38.368 52.7639 37.5769C53.555 36.7857 53.9995 35.7126 53.9995 34.5938C53.9995 33.4749 53.555 32.4018 52.7639 31.6106C51.9727 30.8195 50.8996 30.375 49.7808 30.375H32.9058ZM52.312 34.5938C52.312 35.2651 52.0453 35.9089 51.5706 36.3836C51.0959 36.8583 50.4521 37.125 49.7808 37.125H33.0492C32.3834 37.1385 31.7373 36.8987 31.2415 36.4541C30.7457 36.0095 30.4372 35.3932 30.3783 34.7298C30.3598 34.3865 30.4115 34.043 30.5302 33.7202C30.6488 33.3975 30.832 33.1023 31.0685 32.8527C31.305 32.6031 31.5899 32.4043 31.9058 32.2685C32.2217 32.1326 32.5619 32.0625 32.9058 32.0625H49.7808C50.4521 32.0625 51.0959 32.3292 51.5706 32.8039C52.0453 33.2786 52.312 33.9224 52.312 34.5938Z" fill="#4D4D4D"/>
<path d="M46.4062 33.75H36.2812C35.8153 33.75 35.4375 34.1278 35.4375 34.5938C35.4375 35.0597 35.8153 35.4375 36.2812 35.4375H46.4062C46.8722 35.4375 47.25 35.0597 47.25 34.5938C47.25 34.1278 46.8722 33.75 46.4062 33.75Z" fill="#FF7D14"/>
<path d="M22.7812 48.0938H2.53125C1.85992 48.0938 1.21609 47.8271 0.741386 47.3524C0.266684 46.8777 0 46.2338 0 45.5625L0 36.2812H25.3125V45.5625C25.3125 46.2338 25.0458 46.8777 24.5711 47.3524C24.0964 47.8271 23.4526 48.0938 22.7812 48.0938Z" fill="#FF640A"/>
<path d="M22.7812 31.2483H2.53125C1.59927 31.2483 0.84375 32.0038 0.84375 32.9358V36.3108C0.84375 37.2428 1.59927 37.9983 2.53125 37.9983H22.7812C23.7132 37.9983 24.4688 37.2428 24.4688 36.3108V32.9358C24.4688 32.0038 23.7132 31.2483 22.7812 31.2483Z" fill="#F5FCFC"/>
<path d="M22.7812 32.0625C23.005 32.0627 23.2194 32.1517 23.3776 32.3099C23.5358 32.4681 23.6248 32.6825 23.625 32.9062V36.2812C23.6248 36.505 23.5358 36.7194 23.3776 36.8776C23.2194 37.0358 23.005 37.1248 22.7812 37.125H2.53125C2.30755 37.1248 2.09308 37.0358 1.9349 36.8776C1.77672 36.7194 1.68775 36.505 1.6875 36.2812V32.9062C1.68775 32.6825 1.77672 32.4681 1.9349 32.3099C2.09308 32.1517 2.30755 32.0627 2.53125 32.0625H22.7812ZM22.7812 30.375H2.53125C1.85992 30.375 1.21609 30.6417 0.741386 31.1164C0.266684 31.5911 0 32.2349 0 32.9062L0 36.2812C0 36.9526 0.266684 37.5964 0.741386 38.0711C1.21609 38.5458 1.85992 38.8125 2.53125 38.8125H22.7812C23.4526 38.8125 24.0964 38.5458 24.5711 38.0711C25.0458 37.5964 25.3125 36.9526 25.3125 36.2812V32.9062C25.3125 32.2349 25.0458 31.5911 24.5711 31.1164C24.0964 30.6417 23.4526 30.375 22.7812 30.375Z" fill="#FF7D14"/>
<path d="M17.7188 33.75H7.59375C7.12776 33.75 6.75 34.1278 6.75 34.5938C6.75 35.0597 7.12776 35.4375 7.59375 35.4375H17.7188C18.1847 35.4375 18.5625 35.0597 18.5625 34.5938C18.5625 34.1278 18.1847 33.75 17.7188 33.75Z" fill="#FF640A"/>
<path d="M4.21875 38.8125H2.53125C2.53331 40.6691 3.00695 42.4947 3.90774 44.1181C4.80853 45.7415 6.10694 47.1095 7.68116 48.0938H13.5C11.0393 48.091 8.68022 47.1122 6.94025 45.3723C5.20028 43.6323 4.22154 41.2732 4.21875 38.8125Z" fill="#FF7D14"/>
<path d="M12.6562 38.8125H10.9688C10.9708 40.6691 11.4445 42.4947 12.3452 44.1181C13.246 45.7415 14.5444 47.1095 16.1187 48.0938H21.9375C19.4768 48.091 17.1177 47.1122 15.3777 45.3723C13.6378 43.6323 12.659 41.2732 12.6562 38.8125Z" fill="#FF7D14"/>
<path d="M21.0938 38.8125H19.4062C19.4077 40.5636 19.8288 42.2888 20.6345 43.8436C21.4401 45.3984 22.6067 46.7374 24.0365 47.7483C24.5398 47.4607 24.9288 47.0087 25.1383 46.4683C23.8923 45.6173 22.8727 44.4753 22.1679 43.1412C21.4632 41.8072 21.0944 40.3213 21.0938 38.8125Z" fill="#FF7D14"/>
<path d="M2.53125 37.125H4.21875V38.8125H2.53125V37.125Z" fill="#FF9119"/>
<path d="M10.9688 37.125H12.6562V38.8125H10.9688V37.125Z" fill="#FF9119"/>
<path d="M19.4062 37.125H21.0938V38.8125H19.4062V37.125Z" fill="#FF9119"/>
<path d="M2.53125 30.375H4.21875V32.0625H2.53125V30.375Z" fill="#FF9119"/>
<path d="M19.4062 30.375H21.0938V32.0625H19.4062V30.375Z" fill="#FF9119"/>
<path d="M23.625 33.75H25.3125V35.4375H23.625V33.75Z" fill="#FF9119"/>
<path d="M0 33.75H1.6875V35.4375H0V33.75Z" fill="#FF9119"/>
<path d="M10.9688 30.375H12.6562V32.0625H10.9688V30.375Z" fill="#FF9119"/>
<path d="M21.0938 26.1562H4.21875C3.09987 26.1562 2.02681 25.7118 1.23564 24.9206C0.444474 24.1294 0 23.0564 0 21.9375L0 12.6562H25.3125V21.9375C25.3125 23.0564 24.868 24.1294 24.0769 24.9206C23.2857 25.7118 22.2126 26.1562 21.0938 26.1562Z" fill="#373737"/>
<path d="M21.0938 9.31079H4.21875C2.35479 9.31079 0.84375 10.8218 0.84375 12.6858C0.84375 14.5498 2.35479 16.0608 4.21875 16.0608H21.0938C22.9577 16.0608 24.4688 14.5498 24.4688 12.6858C24.4688 10.8218 22.9577 9.31079 21.0938 9.31079Z" fill="#F5FCFC"/>
<path d="M4.21827 8.4375C3.62929 8.43755 3.04685 8.5609 2.50842 8.79961C1.96999 9.03832 1.48749 9.38711 1.09198 9.82352C0.69647 10.2599 0.396701 10.7743 0.211964 11.3336C0.0272261 11.8928 -0.0383878 12.4846 0.0193437 13.0707C0.151657 14.1334 0.672112 15.1097 1.48066 15.812C2.28922 16.5142 3.3288 16.8928 4.39959 16.875H21.0933C22.2121 16.875 23.2852 16.4305 24.0764 15.6394C24.8675 14.8482 25.312 13.7751 25.312 12.6563C25.312 11.5374 24.8675 10.4643 24.0764 9.67314C23.2852 8.88197 22.2121 8.4375 21.0933 8.4375H4.21827ZM23.6245 12.6563C23.6245 13.3276 23.3578 13.9714 22.8831 14.4461C22.4084 14.9208 21.7646 15.1875 21.0933 15.1875H4.3617C3.69588 15.201 3.04977 14.9612 2.55397 14.5166C2.05818 14.072 1.74967 13.4557 1.69081 12.7923C1.67232 12.449 1.72399 12.1055 1.84265 11.7827C1.96132 11.46 2.14449 11.1648 2.381 10.9152C2.61751 10.6656 2.9024 10.4668 3.21828 10.331C3.53416 10.1951 3.87441 10.125 4.21827 10.125H21.0933C21.7646 10.125 22.4084 10.3917 22.8831 10.8664C23.3578 11.3411 23.6245 11.9849 23.6245 12.6563Z" fill="#4D4D4D"/>
<path d="M15.6094 10.9688C17.4733 10.9688 18.9844 9.45771 18.9844 7.59375C18.9844 5.72979 17.4733 4.21875 15.6094 4.21875C13.7454 4.21875 12.2344 5.72979 12.2344 7.59375C12.2344 9.45771 13.7454 10.9688 15.6094 10.9688Z" fill="#FA5046"/>
<path d="M9.70312 10.9688C11.5671 10.9688 13.0781 9.45771 13.0781 7.59375C13.0781 5.72979 11.5671 4.21875 9.70312 4.21875C7.83916 4.21875 6.32812 5.72979 6.32812 7.59375C6.32812 9.45771 7.83916 10.9688 9.70312 10.9688Z" fill="#FF7D14"/>
<path d="M18.5625 15.1875C20.4265 15.1875 21.9375 13.6765 21.9375 11.8125C21.9375 9.94854 20.4265 8.4375 18.5625 8.4375C16.6985 8.4375 15.1875 9.94854 15.1875 11.8125C15.1875 13.6765 16.6985 15.1875 18.5625 15.1875Z" fill="#FF7D14"/>
<path d="M6.75 15.1875C8.61396 15.1875 10.125 13.6765 10.125 11.8125C10.125 9.94854 8.61396 8.4375 6.75 8.4375C4.88604 8.4375 3.375 9.94854 3.375 11.8125C3.375 13.6765 4.88604 15.1875 6.75 15.1875Z" fill="#FA5046"/>
<path d="M12.6562 15.1875C14.5202 15.1875 16.0312 13.6765 16.0312 11.8125C16.0312 9.94854 14.5202 8.4375 12.6562 8.4375C10.7923 8.4375 9.28125 9.94854 9.28125 11.8125C9.28125 13.6765 10.7923 15.1875 12.6562 15.1875Z" fill="#FF9119"/>
<path d="M15.6094 8.2688C16.5414 8.2688 17.2969 7.51328 17.2969 6.5813C17.2969 5.64932 16.5414 4.8938 15.6094 4.8938C14.6774 4.8938 13.9219 5.64932 13.9219 6.5813C13.9219 7.51328 14.6774 8.2688 15.6094 8.2688Z" fill="#FF695F"/>
<path d="M9.70312 8.2688C10.6351 8.2688 11.3906 7.51328 11.3906 6.5813C11.3906 5.64932 10.6351 4.8938 9.70312 4.8938C8.77114 4.8938 8.01562 5.64932 8.01562 6.5813C8.01562 7.51328 8.77114 8.2688 9.70312 8.2688Z" fill="#FF9119"/>
<path d="M18.5625 12.4876C19.4945 12.4876 20.25 11.732 20.25 10.8001C20.25 9.86807 19.4945 9.11255 18.5625 9.11255C17.6305 9.11255 16.875 9.86807 16.875 10.8001C16.875 11.732 17.6305 12.4876 18.5625 12.4876Z" fill="#FF9119"/>
<path d="M6.75 12.4876C7.68198 12.4876 8.4375 11.732 8.4375 10.8001C8.4375 9.86807 7.68198 9.11255 6.75 9.11255C5.81802 9.11255 5.0625 9.86807 5.0625 10.8001C5.0625 11.732 5.81802 12.4876 6.75 12.4876Z" fill="#FF695F"/>
<path d="M12.6562 12.4876C13.5882 12.4876 14.3438 11.732 14.3438 10.8001C14.3438 9.86807 13.5882 9.11255 12.6562 9.11255C11.7243 9.11255 10.9688 9.86807 10.9688 10.8001C10.9688 11.732 11.7243 12.4876 12.6562 12.4876Z" fill="#FFAA32"/>
<path d="M51.4688 26.1562H31.2188C30.5474 26.1562 29.9036 25.8896 29.4289 25.4149C28.9542 24.9402 28.6875 24.2963 28.6875 23.625V14.3438H54V23.625C54 24.2963 53.7333 24.9402 53.2586 25.4149C52.7839 25.8896 52.1401 26.1562 51.4688 26.1562Z" fill="#F5FCFC"/>
<path d="M51.4688 9.28125H31.2188C29.8208 9.28125 28.6875 10.4145 28.6875 11.8125V18.5625C28.6875 19.9605 29.8208 21.0938 31.2188 21.0938H51.4688C52.8667 21.0938 54 19.9605 54 18.5625V11.8125C54 10.4145 52.8667 9.28125 51.4688 9.28125Z" fill="#FFE078"/>
<path d="M51.4688 16.0312H31.2188C30.5474 16.0312 29.9036 15.7646 29.4289 15.2899C28.9542 14.8152 28.6875 14.1713 28.6875 13.5V18.5625C28.6875 19.2338 28.9542 19.8777 29.4289 20.3524C29.9036 20.8271 30.5474 21.0938 31.2188 21.0938H51.4688C52.1401 21.0938 52.7839 20.8271 53.2586 20.3524C53.7333 19.8777 54 19.2338 54 18.5625V13.5C54 14.1713 53.7333 14.8152 53.2586 15.2899C52.7839 15.7646 52.1401 16.0312 51.4688 16.0312Z" fill="#FFB700"/>
<path d="M51.4688 16.875H31.2188C30.5476 16.8743 29.9042 16.6073 29.4297 16.1328C28.9552 15.6583 28.6882 15.0149 28.6875 14.3438V10.9688C28.6882 10.2976 28.9552 9.65424 29.4297 9.1797C29.9042 8.70516 30.5476 8.43824 31.2188 8.4375H51.4688C52.1399 8.43824 52.7833 8.70516 53.2578 9.1797C53.7323 9.65424 53.9993 10.2976 54 10.9688V14.3438C53.9993 15.0149 53.7323 15.6583 53.2578 16.1328C52.7833 16.6073 52.1399 16.8743 51.4688 16.875ZM31.2188 10.125C30.995 10.125 30.7804 10.2139 30.6221 10.3721C30.4639 10.5304 30.375 10.745 30.375 10.9688V14.3438C30.375 14.5675 30.4639 14.7821 30.6221 14.9404C30.7804 15.0986 30.995 15.1875 31.2188 15.1875H51.4688C51.6925 15.1875 51.9071 15.0986 52.0654 14.9404C52.2236 14.7821 52.3125 14.5675 52.3125 14.3438C52.3125 14.12 52.2236 13.9054 52.0654 13.7471C51.9071 13.5889 51.6925 13.5 51.4688 13.5H35.4375C35.2137 13.5 34.9991 13.4111 34.8409 13.2529C34.6826 13.0946 34.5938 12.88 34.5938 12.6562C34.5938 12.4325 34.6826 12.2179 34.8409 12.0596C34.9991 11.9014 35.2137 11.8125 35.4375 11.8125H51.4688C51.7561 11.8123 52.0415 11.8611 52.3125 11.9567V10.9688C52.3125 10.745 52.2236 10.5304 52.0654 10.3721C51.9071 10.2139 51.6925 10.125 51.4688 10.125H31.2188Z" fill="#FFCB1E"/>
<path d="M37.9688 8.4375H44.7188V26.1562H37.9688V8.4375Z" fill="#4D4D4D"/>
<path d="M37.9688 16.875H44.7188V26.1562H37.9688V16.875Z" fill="#373737"/>
</g>
<defs>
<clipPath id="clip0_35_507">
<rect width="54" height="54" fill="white"/>
</clipPath>
</defs>
</svg>
