<svg width="190" height="190" viewBox="0 0 190 190" fill="none" xmlns="http://www.w3.org/2000/svg">
<g clip-path="url(#clip0_123_1669)">
<path d="M95 190C147.467 190 190 147.467 190 95C190 42.5329 147.467 0 95 0C42.5329 0 0 42.5329 0 95C0 147.467 42.5329 190 95 190Z" fill="#E72C37"/>
<path d="M151.558 88.494C152.471 88.0907 153.32 90.7441 157.035 91.954C159.837 92.8455 160.389 91.8054 164.443 92.2087C166.311 92.3997 170.238 92.9516 173.295 95.7535C175.396 97.6852 176.712 100.084 176.712 100.084C177.37 101.272 177.413 101.697 178.156 102.716C179.281 104.223 180.597 105.242 181.573 105.603C186.731 107.513 186.71 110.358 186.986 111.143C187.007 111.228 186.901 111.27 186.858 111.207C186.561 110.803 186.031 110.188 185.245 109.508C184.057 108.532 183.377 108.447 183.016 108.468C182.783 108.468 182.146 108.49 181.785 108.957C181.34 109.551 182.337 110.4 181.998 110.952C181.722 111.419 180.745 111.44 180.108 111.27C179.217 111.037 179.047 110.442 178.41 110.527C177.88 110.591 177.858 111.037 177.264 111.207C176.712 111.355 176.436 111.037 175.29 110.676C174.165 110.315 173.571 110.124 172.997 110.336C172.17 110.655 172.297 111.44 171.554 111.695C170.599 112.013 170.026 110.846 168.901 110.973C167.563 111.122 167.372 112.862 166.269 112.905C165.356 112.926 165.059 111.801 163.658 110.761C162.151 109.636 160.601 109.572 159.985 109.445C154.764 108.362 149.16 89.5554 151.558 88.494V88.494Z" stroke="black" stroke-width="0.28" stroke-miterlimit="10"/>
<path d="M186.243 110.336C184.906 108.129 182.592 107.195 180.342 106.091C178.007 104.987 176.012 102.992 175.035 100.551C173.188 95.605 167.712 93.6521 162.809 93.3762L162.851 92.8667C167.924 93.2488 173.507 95.2653 175.693 100.254C176.712 102.504 178.219 104.605 180.512 105.751C182.592 106.961 186.243 107.216 186.54 110.251L186.243 110.358V110.336Z" fill="black"/>
<path d="M161.556 96.921C165.356 97.9824 169.007 99.7017 172 102.291C175.035 104.881 177.052 108.32 179.811 111.037L179.641 111.228C176.627 108.723 174.547 105.306 171.533 102.822C168.646 100.254 165.059 98.6404 161.408 97.388L161.556 96.8998V96.921Z" fill="black"/>
<path d="M160.41 96.0507C166.566 98.2158 173.231 100.912 177.137 106.409C178.431 108.192 179.365 110.336 181.424 111.1L181.233 111.567C179.026 110.633 177.964 108.426 176.67 106.749C175.375 105.008 173.762 103.544 171.979 102.291C168.434 99.7442 164.316 98.0885 160.24 96.5177L160.41 96.0295V96.0507Z" fill="black"/>
<path d="M157.926 98.4918C163.106 102.079 167.924 106.77 173.231 110.145L173.125 110.442C170.111 109.126 167.606 107.067 164.974 105.136C162.405 103.183 159.922 101.124 157.587 98.8739L157.905 98.4918H157.926Z" fill="black"/>
<path d="M157.544 98.1522C164.167 102.015 170.174 106.791 176.585 110.973L176.372 111.27C170.047 106.94 163.361 103.225 157.247 98.5767L157.523 98.1522H157.544Z" fill="black"/>
<path d="M157.396 102.1C157.396 102.1 166.226 111.801 167.33 112.204" stroke="black" stroke-width="0.28" stroke-miterlimit="10"/>
<path d="M157.396 102.1C157.396 102.1 163.7 110.676 164.252 111.27" stroke="black" stroke-width="0.28" stroke-miterlimit="10"/>
<path d="M158.967 92.3361C158.967 92.3361 162.787 92.0601 166.375 95.0955C166.481 95.1804 166.417 95.3715 166.269 95.3502C165.059 95.2441 161.832 94.9894 161.45 95.7323C161.068 96.4328 161.811 96.7936 162.257 96.9847C162.32 97.0059 162.554 97.2182 162.533 97.2606L162.427 97.5578C162.299 97.8762 162.427 98.2158 162.702 98.3857C163.721 99.0437 165.101 99.9777 165.101 100.147C165.101 100.317 159.115 98.6404 158.691 99.0225C158.266 99.4045 160.707 102.928 160.771 103.353C160.835 103.777 159.434 103.544 158.5 102.886C157.566 102.228 159.051 107.471 159.2 108.256C159.455 109.53 158.287 108.574 158.287 108.574C154 105.263 149.117 89.5766 151.516 88.5152C152.429 88.1119 155.698 92.5695 158.967 92.3361Z" fill="black" stroke="black" stroke-width="0.24" stroke-miterlimit="10"/>
<path d="M116.853 152.025C121.586 151.75 136.296 147.058 142.049 143.11C145.933 140.457 152.832 132.858 156.037 121.056C156.653 118.763 158.542 107.874 156.653 100.933C152.386 85.1402 150.752 87.1143 146.209 79.5364C146.209 79.5364 143.514 75.6943 141.582 74.3571C141.412 74.2297 140.521 74.0387 139.438 73.4655C139.438 73.4655 138.716 73.0835 138.037 72.5952C136.105 71.2155 136.127 69.6023 134.577 68.8806C132.964 68.1376 130.077 68.9655 125.938 67.331C125.895 67.331 125.853 67.3098 125.789 67.2673C122.733 66.0362 121.862 65.3569 120.78 65.0385C119.188 64.5716 117.681 64.9112 116.513 65.4631C113.52 66.8853 112.883 67.4796 110.549 70.8759C110.336 71.1731 110.357 71.5551 110.549 71.8523C110.867 72.2981 111.313 73.0835 111.567 74.1448C111.907 75.5882 111.801 76.501 111.674 77.9868C111.631 78.5812 111.525 79.1543 111.398 79.7274C111.185 80.5765 110.909 82.1473 111.207 83.9727C112.204 90.2346 115.049 91.7629 117.171 96.5389C117.49 97.2606 118.381 100.53 118.933 100.232C119.23 100.084 119.612 99.2984 120.164 99.0437C120.419 98.9163 120.801 99.0012 120.992 99.2135C122.287 100.53 123.051 101.655 125.046 102.673C125.407 102.843 125.428 102.843 125.683 102.971C128.825 104.541 132.03 109.402 130.459 112.098C130.289 112.416 128.782 114.242 126.426 114.221C126.129 114.221 125.98 114.433 126.086 114.709C127.53 118.551 133.898 131.457 115.049 144.065C111.61 146.379 110.633 152.386 116.81 152.025H116.853Z" fill="#E72C37"/>
<path d="M116.832 151.728C124.749 150.561 132.646 147.695 139.799 144.108C150.2 137.867 155.889 125.259 156.886 113.478C157.969 105.327 155.825 97.2819 152.62 89.8738C151.049 86.1379 147.95 83.2935 145.933 79.7062C144.66 77.9868 143.216 76.0127 141.455 74.6542C139.396 73.9537 136.997 72.7438 135.893 70.6848C135.49 70.0268 135.065 69.4749 134.429 69.199C132.306 68.5622 129.865 69.0079 127.678 68.3075C126.15 67.9254 124.728 67.2886 123.327 66.673C121.905 66.015 120.631 65.2084 119.209 65.272C115.94 65.4631 113.011 67.8405 111.313 70.6212L110.994 71.0881C110.888 71.258 110.888 71.258 110.888 71.3641C112.141 73.2957 112.544 75.7792 112.204 77.9868C111.058 82.4232 111.631 87.0082 114.242 90.8926C115.961 93.4186 117.511 96.1356 118.402 99.0861C118.53 99.4045 118.721 99.7866 118.891 99.9564C118.954 99.9777 118.848 99.9352 118.784 99.9776C119.358 99.3621 120.164 98.1097 121.183 99.0012C122.372 100.254 123.476 101.57 124.983 102.313C126.384 102.886 127.742 103.905 128.74 105.072C130.204 106.834 131.648 109.211 131.011 111.631C130.395 113.457 128.039 114.582 126.384 114.56C131.839 125.98 126.638 136.572 116.683 143.344C112.48 145.382 110.166 152.004 116.81 151.75L116.832 151.728ZM116.874 152.365C109.636 152.662 111.504 145.19 116.343 142.813C125.492 136.7 131.138 126.235 126.129 115.579C126.023 115.155 125.619 114.773 125.874 114.221C126.108 113.839 126.553 113.902 126.66 113.902C131.987 113.244 131.16 108.638 128.315 105.475C126.341 103.14 122.945 102.397 121.183 99.8291C119.761 97.8125 119.273 102.78 117.872 99.2984C116.98 96.3267 115.452 93.7795 113.648 91.2535C110.909 87.4115 110.039 82.4444 111.185 77.8595C111.44 75.8005 111.355 73.8052 110.188 72.1283C109.657 71.4278 110.06 70.6212 110.549 70.0268C112.438 67.0551 115.516 64.5716 119.23 64.3805C120.695 64.2532 122.435 65.3145 123.688 65.9088C126.426 67.3098 129.27 68.1164 132.37 68.1589C133.983 68.1164 135.745 68.7744 136.445 70.324C137.167 71.6613 138.334 72.5528 139.693 73.232C142.728 74.1023 144.681 76.9043 146.485 79.3665C148.438 82.8902 151.558 85.7346 153.193 89.5978C154.87 93.3549 155.995 97.2819 157.056 101.251C159.879 117.044 154.233 135.893 140.139 144.639C132.815 148.311 125.046 151.134 116.895 152.344L116.874 152.365Z" fill="black"/>
<path d="M116.174 72.6589C128.336 75.1424 125.131 78.8359 128.421 82.784C128.421 82.784 128.082 82.9114 125.98 79.6C125.98 79.6 127.657 88.5577 119.145 85.5011C124.516 87.2841 131.011 79.6 116.152 72.6589H116.174Z" fill="black"/>
<path d="M81.001 89.9162C80.7887 89.8101 82.4232 84.6095 86.5624 81.1071C89.9162 78.2628 93.8644 77.5198 95.2865 77.35C96.8573 77.159 96.3479 77.35 103.735 76.9043C106.728 76.7132 108.065 76.6071 109.508 75.6519C111.037 74.6542 111.949 73.1896 112.48 73.4655C112.841 73.6566 112.799 74.5481 112.586 75.1424C112.353 75.8217 111.504 76.9679 107.513 77.6684C104.308 78.2415 103.501 77.7321 99.6805 77.9019C96.5601 78.0505 94.1191 78.1779 91.4021 79.4939C89.4917 80.4067 88.2817 81.5104 87.178 82.5081C83.2086 86.1166 81.2133 90.0223 81.0222 89.9374L81.001 89.9162Z" fill="black"/>
<path d="M125.535 66.6093C125.535 66.3546 126.872 66.1211 128.018 66.1211C129.292 66.1211 129.674 66.3546 130.417 66.3758C130.884 66.3758 131.966 66.3334 135.235 63.6164C137.74 61.5361 137.591 61.1753 139.268 60.1564C141.009 59.0951 142.282 58.7979 143.323 58.7342C144.193 58.6705 144.851 58.7767 145.212 58.8404C152.11 59.9866 154.169 60.1989 154.148 60.3899C154.127 60.6022 151.707 60.496 150.306 60.3899C146.825 60.114 146.485 59.5408 144.49 59.6894C143.768 59.7531 141.391 59.9229 139.396 61.5149C138.547 62.1942 138.674 62.3852 136.933 64.0197C135.787 65.081 135.15 65.6753 134.153 66.2485C133.367 66.6942 132.348 67.3098 130.884 67.4796C129.971 67.5857 129.249 67.4796 127.806 67.2461C126.829 67.0975 125.556 66.8853 125.556 66.6305L125.535 66.6093Z" fill="black"/>
<path d="M122.393 68.5834C122.457 68.4348 124.749 68.6259 126.617 70.048C127.105 70.4301 127.721 70.982 128.782 71.4278C129.546 71.7462 129.589 71.5976 130.183 71.8948C131.308 72.4467 131.287 72.9349 132.709 74.166C133.622 74.9726 134.471 75.5033 134.683 75.6307C135.66 76.225 135.978 76.2675 136.636 76.7557C137.676 77.5411 138.377 78.4963 138.292 78.5812C138.207 78.6661 137.443 77.9231 135.808 76.9255C134.938 76.3948 134.938 76.4797 134.301 76.0764C132.476 74.9514 132.476 74.3358 130.905 73.3382C129.865 72.6801 129.886 72.9561 128.252 72.0433C127.254 71.4915 127.063 71.2792 125.662 70.3877C123.412 68.9443 122.329 68.6683 122.372 68.5622L122.393 68.5834Z" fill="black"/>
<path d="M116.259 75.758C116.768 76.3736 116.895 76.692 117.065 77.0104C117.108 77.0953 117.32 77.1165 117.447 77.2014C117.808 77.3925 118.105 77.2014 118.572 77.2651C119.379 77.3712 120.101 77.8807 120.016 78.008C119.973 78.0929 119.909 77.9656 118.891 77.817C118.042 77.7109 117.893 77.7745 117.851 77.8382C117.744 78.008 117.766 78.284 117.893 78.4538C118.211 78.8783 118.721 78.8996 119.315 79.0906C120.292 79.409 120.737 80.2793 121.035 80.7887C121.501 81.5954 121.756 82.4656 121.799 82.7628C121.799 82.8053 121.756 82.8265 121.735 82.784C121.608 82.6355 121.247 82.2109 120.695 81.1284C120.695 81.1284 120.631 82.2958 120.568 83.1237C120.525 83.8454 119.315 82.3383 118.657 81.9774C118.126 81.6803 117.829 82.2958 117.766 82.6779C117.766 82.6991 117.723 82.7204 117.702 82.6779C117.192 82.1048 117.277 81.659 117.341 79.3241C117.362 78.3477 116.216 77.626 116.259 75.7368V75.758Z" fill="black"/>
<path d="M121.119 65.4206C117.256 64.9961 112.268 69.4325 111.461 71.0669C111.334 71.3429 111.652 71.5976 111.907 71.4278C112.841 70.7485 112.777 70.324 115.027 69.4537C114.73 69.6872 112.268 70.9608 111.249 74.2722C111.249 74.2722 109.721 71.8948 110.633 70.4089C112.268 67.7343 115.091 65.9513 116.28 65.548C119.655 64.4017 121.119 65.4206 121.119 65.4206Z" fill="black"/>
<path d="M116.45 94.3101C116.747 94.5012 117.341 94.6498 117.893 94.9469C119.188 95.605 121.013 96.5177 123.242 96.2205C123.836 96.1356 125.577 95.8809 126.978 94.4375C128.103 93.27 128.4 91.9115 128.528 91.3384C128.995 89.152 128.209 87.4539 128.209 87.4539C128.294 88.0907 128.591 90.8077 126.829 93.0365C126.49 93.4611 125.662 94.4799 124.197 94.9894C122.754 95.4988 121.502 95.2441 120.44 95.0318C119.697 94.8833 117.596 94.4163 115.664 92.6969C112.714 90.086 112.374 86.5199 112.31 85.7133C112.459 86.5624 113.181 90.2983 116.513 92.5695C117.299 93.1002 119.655 94.6922 122.563 94.0979C123.072 93.9917 125.046 93.546 126.426 91.7417C127.424 90.4257 127.594 89.0459 127.678 88.3879C127.912 86.2864 127.19 84.652 126.829 83.9515C126.936 84.6308 127.042 85.6284 126.999 86.8383C126.957 88.6851 126.936 89.0035 126.532 89.895C125.683 91.7417 123.9 92.5059 123.518 92.6757C121.65 93.4823 119.952 93.079 119.506 92.9728C117.553 92.4846 116.301 91.2959 115.537 90.4469C112.013 86.4987 111.334 81.9774 111.589 78.6024C111.589 78.6024 110.018 82.6567 111.27 85.9893C112.523 89.3219 114.433 92.9304 115.409 93.9493C116.386 94.9682 116.45 94.3101 116.45 94.3101Z" fill="black"/>
<path d="M139.056 91.9752C142.456 91.9752 145.212 89.2192 145.212 85.8195C145.212 82.4197 142.456 79.6637 139.056 79.6637C135.656 79.6637 132.9 82.4197 132.9 85.8195C132.9 89.2192 135.656 91.9752 139.056 91.9752Z" fill="#A21007"/>
<path d="M114.242 144.723C114.2 144.851 114.327 144.957 114.327 144.957C111.1 146.103 108.129 143.068 105.497 141.646C104.096 140.69 102.737 140.096 101.103 139.608C96.7512 137.506 92.7181 134.386 87.7511 134.004C84.5883 133.601 81.468 134.492 78.1991 135.171C75.8005 135.638 73.4867 136.212 71.3641 137.443C70.6636 137.846 69.6872 138.207 68.7957 137.952C67.9254 137.761 67.1824 137.209 66.5881 136.679C64.7626 135.087 62.4489 134.025 60.029 134.046H59.7319C59.7743 134.089 59.9654 133.855 59.8168 133.771L59.9441 133.855C60.7932 134.513 62.4701 135.851 63.3192 136.53C66.2909 139.608 70.2391 140.69 74.2085 141.731C75.7155 142.282 76.1825 144.384 77.8382 144.575C78.2203 144.596 78.6236 144.469 79.133 144.575C80.5765 145.021 79.8548 147.016 80.9373 147.716C82.1685 148.778 83.8454 149.139 85.2463 150.051C85.968 150.518 86.6685 151.283 86.7534 152.28C86.7746 153.257 86.6897 153.83 87.093 154.551C87.4114 155.273 88.027 155.698 88.685 156.292C90.744 158.224 90.2771 161.323 89.152 163.573C88.8124 164.358 88.1756 165.059 87.5176 165.568C85.5647 167.203 84.0576 169.559 83.4845 172.042C83.4845 172.042 83.4845 172.127 83.4845 172.042C83.4845 172.042 83.3996 171.957 83.3359 171.957C83.3147 171.957 83.251 171.957 83.2722 171.957C83.6331 171.724 83.9515 171.342 84.2911 171.002C86.3926 168.328 89.1096 166.226 92.6969 166.184C97.4304 165.865 102.928 167.011 106.218 162.681C109.53 159.179 112.714 155.082 116.45 151.962L116.619 152.514C111.865 152.599 111.143 148.014 113.796 144.872C113.881 144.787 113.945 144.66 113.966 144.702C113.987 144.723 114.115 144.787 114.242 144.745V144.723ZM114.688 144.341C114.688 144.575 114.433 145.084 114.242 145.233C111.525 148.608 112.799 152.45 117.49 151.856C114.688 153.978 112.374 156.78 109.954 159.434L106.643 163.085C102.143 169.134 93.9068 164.868 88.1756 168.052C86.4987 169.092 85.3312 170.938 83.8029 172.297C83.6756 172.403 83.4845 172.552 83.251 172.552C82.9751 172.509 82.9114 172.212 82.9114 172.063C83.4845 169.389 85.0765 166.927 87.1355 165.165C88.3879 164.167 88.8549 162.575 89.1308 161.047C89.3219 159.54 89.3643 157.863 88.2817 156.717C87.7511 156.207 86.9445 155.676 86.5199 154.912C86.0105 154.254 85.9256 153.15 85.9256 152.429C85.3737 149.266 79.6213 149.478 79.6425 145.764C79.409 144.872 78.6236 145.021 77.8382 145.127C76.9255 145.318 75.8854 144.617 75.6094 143.79C74.9726 142.155 73.2533 141.837 71.6825 141.539C70.0693 141.157 68.4985 140.584 67.0338 139.82C64.8475 138.759 63.0432 136.806 61.1116 135.384L60.1352 134.62L59.647 134.238L59.5196 134.153C59.2649 133.983 59.5196 133.622 59.6894 133.664H60.0078C61.6847 133.664 63.3616 134.131 64.805 134.959C66.3121 135.681 67.3735 137.23 68.9018 137.464C70.3877 137.782 71.5764 136.233 73.2108 135.681C77.9231 134.089 82.7204 132.582 87.8784 132.921C91.2535 133.388 94.2889 134.938 97.0908 136.763C99.7017 138.971 103.034 139.374 105.773 141.285C108.256 142.643 111.1 145.594 114.093 144.511C114.263 144.405 114.56 144.405 114.688 144.426V144.341Z" fill="black"/>
<path d="M111.631 154.063C111.631 153.787 111.695 153.554 111.758 153.384C111.801 153.257 111.695 153.15 111.567 153.193C111.185 153.342 110.824 153.405 110.612 153.448C110.485 153.448 110.4 153.342 110.442 153.235C110.824 152.386 110.166 152.344 110.166 152.344C106.94 153.15 103.225 152.662 101.824 152.408C101.676 152.386 101.655 152.174 101.824 152.11L106.367 150.731C106.494 150.688 106.515 150.54 106.388 150.455C106.261 150.37 106.197 150.285 106.176 150.2C106.155 150.136 106.176 150.073 106.218 150.03C106.834 149.563 107.301 149.266 107.534 149.117C107.598 149.075 107.577 148.99 107.492 148.99C104.393 148.672 103.013 147.823 102.504 147.377C102.397 147.292 102.461 147.101 102.61 147.122C108.362 147.441 110.357 146.613 110.973 146.231C111.1 146.146 111.1 146.018 110.952 145.955C110.23 145.657 109.891 145.297 109.742 145.021C109.636 144.851 109.784 144.66 109.975 144.681C111.355 144.915 112.947 145.106 113.86 145.148C113.754 145.148 103.034 143.514 98.5555 141.667C98.2795 141.561 98.046 141.879 98.2371 142.113L99.5956 143.62C99.7229 143.747 99.5743 143.959 99.4045 143.896C98.2158 143.386 95.796 142.346 94.4587 141.773C94.204 141.667 93.9705 141.964 94.1403 142.198L96.0295 144.617C96.1569 144.787 96.0507 145.042 95.8385 145.063L92.2724 147.143C92.0389 147.165 92.1026 147.61 92.336 147.674C95.3715 148.481 95.8597 149.139 95.9021 149.181C96.1569 149.457 96.0719 149.436 98.0673 150.073C98.4281 150.179 97.7276 150.433 97.3243 150.561C97.2394 150.582 97.1333 150.667 97.1333 150.773C97.1333 151.304 93.3337 152.068 90.9351 152.217C90.6591 152.217 90.6804 152.684 90.9563 152.747L97.6003 154.827C98.7465 154.997 97.8974 155.167 97.7276 155.316L97.0696 155.868C96.8998 156.016 96.9635 156.271 97.1757 156.356C101.336 157.948 112.119 155.464 116.11 152.662C116.11 152.662 111.674 154.424 111.674 154.084L111.631 154.063Z" fill="black" stroke="black" stroke-width="0.22" stroke-miterlimit="10"/>
<path d="M83.251 172.191C86.3714 169.346 86.0742 167.309 89.1945 165.95C91.954 164.74 98.6828 165.802 102.079 164.146C107.832 161.344 105.9 157.099 110.888 154.934" stroke="black" stroke-width="0.3" stroke-miterlimit="10"/>
<path d="M98.7465 145.36C96.0083 143.407 90.744 136.742 79.4515 144.766C79.3665 144.83 79.409 144.936 79.4515 145.021L79.6213 145.212C79.7274 145.339 79.8335 145.36 79.9609 145.275C90.7016 137.697 95.605 144.256 98.6828 145.466C98.7465 145.488 98.7677 145.403 98.7253 145.382L98.7465 145.36Z" stroke="black" stroke-width="0.22" stroke-miterlimit="10"/>
<path d="M94.6922 146.04C92.336 147.738 90.2558 148.459 85.1614 150.412L84.652 150.073C84.652 150.073 84.5883 149.882 84.6732 149.86C86.0105 149.478 91.2323 147.122 94.6497 145.955C94.6922 145.955 94.7347 146.018 94.6922 146.04V146.04Z" stroke="black" stroke-width="0.22" stroke-miterlimit="10"/>
<path d="M97.7276 151.898C95.0531 153.129 95.3502 154.509 87.9633 156.016C87.9633 156.016 87.369 155.443 87.4751 155.422C95.4988 153.66 97.0696 151.898 97.7064 151.813C97.7488 151.813 97.7701 151.877 97.7064 151.898H97.7276Z" stroke="black" stroke-width="0.22" stroke-miterlimit="10"/>
<path d="M65.9937 135.914C64.6565 136.169 59.8168 133.919 59.8168 133.919" stroke="black" stroke-width="0.28" stroke-miterlimit="10"/>
<path d="M86.3713 169.155C88.0058 167.797 84.1638 169.346 85.8831 166.863C85.8831 166.863 83.4845 171.066 83.3572 171.745C83.2298 172.424 86.3713 169.155 86.3713 169.155Z" fill="black"/>
<path d="M120.419 100.36C119.994 101.315 120.27 102.822 119.931 103.947C119.718 105.157 118.509 106.409 117.829 107.386C111.207 115.197 113.945 120.759 116.067 129.525C116.174 130.523 116.322 131.775 115.579 132.603C114.964 133.282 114.688 134.216 114.518 135.087C114.348 136.021 114.688 137.23 114.072 138.122C113.393 138.822 112.947 139.544 112.905 140.584C112.905 140.881 112.968 140.584 112.65 140.627C112.544 140.669 112.565 140.669 112.586 140.648C112.82 140.202 113.053 139.756 113.35 139.353C114.56 137.867 116.81 137.294 116.938 135.065C117.001 134.45 117.15 133.643 117.681 133.091C119.251 131.839 120.822 130.778 121.459 128.803C121.862 127.848 121.693 126.872 122.096 125.874C122.414 125.322 122.86 125.598 123.285 125.747C123.518 125.768 124.219 125.895 124.473 125.619C124.919 124.961 125.068 124.112 125.174 123.285C125.704 120.122 124.898 116.98 124.834 113.839C125.046 113.329 125.513 113.202 125.811 113.053C126.914 112.544 128.591 112.225 128.973 110.994C129.143 109.36 127.976 108.957 126.893 107.959C126.362 107.407 126.023 106.791 125.662 106.176C125.259 105.581 125.131 104.754 124.728 104.414C123.242 103.353 121.31 101.909 120.398 100.317L120.419 100.36ZM120.27 99.7866C120.907 99.7442 120.992 100.275 121.289 100.593C122.287 102.122 123.709 102.907 125.131 104.032C125.704 104.584 125.747 105.306 126.171 105.921C126.851 107.301 127.742 107.959 128.952 108.893C129.483 109.551 129.631 110.273 129.568 111.122C129.079 112.735 127.339 113.011 126.065 113.605C125.259 113.881 125.322 114.178 125.471 114.942C125.789 117.32 127.339 128.315 122.669 126.129C122.308 126.575 122.414 128.188 122.011 129.016C121.395 130.99 119.634 132.348 118.105 133.495C117.702 133.94 117.575 134.492 117.511 135.171C117.362 136.572 116.428 137.846 115.218 138.525C114.178 139.056 113.563 139.969 113.053 140.988C112.735 141.455 112.268 141.072 112.332 140.606C112.332 139.587 112.841 138.568 113.605 137.825C114.115 136.997 113.733 136.042 113.839 135.044C113.881 134.322 114.157 133.664 114.475 133.028C114.773 132.454 115.409 132.157 115.516 131.478C115.643 130.884 115.579 130.247 115.516 129.61C114.518 124.558 112.056 119.336 113.457 113.987C114.093 111.334 115.919 109.254 117.362 107.046C118.678 105.433 119.718 103.989 119.591 101.909C119.718 101.209 119.421 100.275 120.27 99.8078V99.7866Z" fill="black"/>
<path d="M124.155 125.959C124.601 124.346 124.983 122.584 124.664 120.928C124.24 119.251 124.261 117.32 125.025 115.728L125.556 115.961C124.919 117.532 124.558 119.188 124.94 120.886C125.322 122.627 124.94 124.367 124.728 126.108L124.155 125.98V125.959Z" fill="black"/>
<path d="M122.138 125.832C122.69 123.773 123.009 121.48 122.478 119.4C121.862 117.086 122.966 114.751 124.219 112.862L124.961 113.393C123.836 115.133 122.754 117.214 123.178 119.273C123.476 121.565 123.094 123.752 122.711 126.002L122.138 125.853V125.832Z" fill="black"/>
<path d="M121.31 114.2C118.891 120.376 121.905 127.572 118.02 133.282L117.723 133.049C121.417 127.318 118.233 120.164 120.292 113.945L121.31 114.2Z" fill="black"/>
<path d="M119.124 109.041C112.119 113.075 118.211 124.091 117.468 130.502C116.98 133.091 115.983 135.426 115.749 138.037L115.155 137.995C115.112 135.299 116.534 132.879 116.895 130.438C116.959 127.954 116.598 125.322 116.11 122.839C115.155 118.19 113.563 110.909 118.891 108.299L119.103 109.041H119.124Z" fill="black"/>
<path d="M116.343 109.381C113.414 114.603 113.648 120.907 115.282 126.511L114.9 126.617C113.159 120.907 112.968 114.497 115.834 109.105L116.343 109.36V109.381Z" fill="black"/>
<path d="M120.207 131.245C120.207 131.245 120.058 131.202 120.016 131.245C119.952 131.308 120.016 131.245 120.016 131.245C120.122 131.096 120.27 130.778 120.355 130.629C121.119 128.825 121.926 126.829 121.884 124.855C121.608 122.52 121.947 120.122 122.457 117.851L122.796 117.914C121.693 121.332 122.796 124.983 121.714 128.336C121.374 129.419 120.992 130.587 120.419 131.563C120.419 131.605 120.164 131.775 120.058 131.712L120.228 131.223L120.207 131.245Z" fill="black"/>
<path d="M117.744 133.112C120.674 127.042 116.577 120.101 119.443 113.924L120.101 114.178C117.171 120.228 121.077 127.233 117.957 133.197L117.723 133.091L117.744 133.112Z" fill="black"/>
<path d="M117.829 107.152C118.042 106.982 118.381 106.834 118.551 107.046C118.657 107.195 118.615 107.386 118.551 107.556C117.744 110.166 117.108 112.841 116.641 115.558C116.641 115.6 116.683 115.622 116.704 115.6C117.044 115.197 117.235 114.688 117.468 114.2C117.723 113.69 118.042 113.181 118.572 112.947C118.593 112.947 118.615 112.947 118.636 112.968C118.827 113.796 119.082 114.667 119.74 115.218C120.398 115.749 121.289 115.834 122.117 116.004C122.266 116.025 122.414 116.067 122.499 116.195C122.563 116.28 122.584 116.407 122.605 116.513L122.924 119.188C123.242 118.784 123.454 118.296 123.56 117.787C123.603 117.596 123.709 117.341 123.9 117.362C123.985 117.362 124.049 117.426 124.112 117.49L125.046 118.402C125.704 119.018 125.237 118.445 125.28 118.36C125.45 117.935 125.407 117.447 125.344 116.98C125.216 116.004 125.089 115.049 124.983 114.072C124.983 113.966 124.961 113.839 124.983 113.733C125.046 113.563 125.237 113.499 125.407 113.435C126.384 113.075 127.318 112.565 128.145 111.95C128.485 111.695 128.825 111.419 128.952 111.016C129.079 110.591 128.952 110.124 128.676 109.742C128.4 109.36 128.082 109.084 127.742 108.787C126.936 108.023 126.278 107.152 125.747 106.176C125.45 105.603 125.195 104.987 124.792 104.456C124.155 103.629 123.178 103.119 122.414 102.397C121.884 101.909 121.459 101.315 120.992 100.763C120.822 100.551 120.546 100.317 120.292 100.445C120.079 100.53 120.037 100.805 120.016 101.039C119.867 102.27 119.634 103.501 119.294 104.711C119.188 105.093 119.06 105.475 118.848 105.815C118.424 106.515 117.723 106.961 117.192 107.598C117.108 107.704 116.577 108.511 116.917 108.32C117.044 108.256 117.192 107.874 117.277 107.747C117.426 107.556 117.596 107.386 117.766 107.216L117.829 107.152Z" fill="black" stroke="black" stroke-width="0.12" stroke-miterlimit="10"/>
<path d="M143.917 93.1427C143.853 93.0153 144.044 92.8243 144.129 92.9516C151.962 106.622 157.842 107.619 159.158 114.093C159.285 114.751 159.434 115.282 159.561 115.643C159.603 115.749 159.455 115.813 159.391 115.728C158.648 114.773 158.118 114.327 157.884 114.242C157.82 114.221 157.735 114.284 157.757 114.348C159.2 120.461 160.41 119.91 158.712 122.733C156.759 126.002 158.648 124.579 158.5 128.846C158.5 128.91 158.415 128.91 158.415 128.846C158.181 128.082 157.438 126.086 156.398 127.424C155.422 128.655 159.349 134.959 153.957 137.888C153.808 137.973 153.66 137.782 153.766 137.655C156.971 133.579 149.415 131.86 151.452 134.917C153.49 137.973 151.771 140.966 151.007 141.964C150.9 142.113 150.646 142.07 150.603 141.879C149.966 139.205 149.563 140.924 149.606 142.07C149.691 145.424 146.57 149.287 145.063 150.964C144.723 151.325 144.15 151.219 143.938 150.773C143.641 150.158 143.131 149.584 142.282 150.115C141.603 150.54 135.617 155.528 138.143 151.431C138.44 150.964 129.334 154.827 132.051 152.025C133.516 150.518 119.994 152.174 117.023 151.537C116.874 151.516 116.832 151.283 116.959 151.219C151.58 137.443 155.761 117.914 143.959 93.1214L143.917 93.1427Z" fill="#E72C37" stroke="black" stroke-width="0.28" stroke-miterlimit="10"/>
<path d="M143.853 92.9092C155.592 117.553 151.834 137.591 117.744 151.346C117.659 151.389 117.702 151.495 117.787 151.474C120.568 150.879 128.676 147.037 131.202 145.19C134.789 142.58 142.983 134.726 142.091 138.886C141.285 142.622 147.525 125.959 147.95 130.374C148.247 133.325 149.775 118.636 150.837 121.31C152.875 126.511 150.349 107.025 152.599 110.782C154.551 114.03 155.252 111.419 143.874 92.8879L143.853 92.9092Z" fill="black" stroke="black" stroke-width="0.28" stroke-miterlimit="10"/>
<path d="M148.926 102.695C148.926 102.695 157.523 114.624 158.648 117.49" stroke="black" stroke-width="0.28" stroke-miterlimit="10"/>
<path d="M157.905 125.322C157.247 121.119 150.391 110.103 150.391 110.103" stroke="black" stroke-width="0.28" stroke-miterlimit="10"/>
<path d="M149.988 111.525C149.988 111.525 157.332 123.497 157.905 125.322" stroke="black" stroke-width="0.28" stroke-miterlimit="10"/>
<path d="M152.471 107.725C152.471 107.725 158.542 117.893 159.306 121.65" stroke="black" stroke-width="0.28" stroke-miterlimit="10"/>
<path d="M149.415 121.013C149.415 121.013 149.563 130.268 151.091 134.11" stroke="black" stroke-width="0.24" stroke-miterlimit="10"/>
<path d="M148.757 126.086C148.757 127.87 148.905 131.903 151.856 135.681" stroke="black" stroke-width="0.24" stroke-miterlimit="10"/>
<path d="M145.106 132.921C143.938 138.462 142.367 144.299 142.877 149.945L142.006 150.115C141.837 147.08 142.495 144.299 142.962 141.37C143.429 138.504 144.044 135.66 144.575 132.815L145.084 132.921H145.106Z" fill="black"/>
<path d="M146.231 131.096C143.896 137.613 141.815 144.808 140.627 151.622L139.905 151.58C140.287 147.95 141.285 144.532 142.197 141.03C143.216 137.57 144.087 134.089 145.785 130.862L146.231 131.117V131.096Z" fill="black"/>
<path d="M146.634 130.48C147.695 136.105 148.778 141.837 147.971 147.568L147.462 147.483C148.014 141.9 146.676 136.19 145.382 130.778L146.634 130.48Z" fill="black"/>
<path d="M151.325 116.428C153.957 122.181 157.523 128.379 156.653 134.874L156.398 134.811C156.865 128.464 153.023 122.52 150.158 117.086L151.325 116.428Z" fill="black"/>
<path d="M140.86 137.995C140.414 142.155 138.547 146.103 135.936 149.33C135.15 150.433 134.322 151.558 134.386 152.768L133.643 152.832C133.601 149.733 136.318 147.971 137.613 145.488C139.098 143.216 139.99 140.606 140.606 137.931L140.86 137.973V137.995Z" fill="black"/>
<path d="M131.669 144.532C131.881 145.275 131.966 146.124 131.754 146.931C131.52 147.823 130.841 148.311 130.48 148.82C130.056 149.308 129.844 149.988 129.398 150.625C128.91 151.325 128.061 151.452 127.445 151.643L127.339 151.304C129.143 150.858 129.101 149.839 129.865 148.396C130.268 147.738 130.735 147.249 130.756 146.719C130.841 146.146 130.714 145.551 130.459 144.978L131.69 144.532H131.669Z" fill="black"/>
<path d="M137.379 146.952C136.551 148.374 136.488 150.221 136.551 151.856H135.893C136.127 150.115 136.318 148.396 137.082 146.782L137.379 146.974V146.952Z" fill="black"/>
<path d="M127.594 147.165C126.617 148.926 125.386 150.603 123.645 151.707L123.497 151.474C125.11 150.37 126.256 148.672 127.127 146.952L127.594 147.186V147.165Z" fill="black"/>
<path d="M136.127 141.391C136.53 143.301 136.233 145.509 134.832 146.952C133.516 148.29 132.582 149.86 132.179 151.686L131.287 151.452C131.796 149.563 132.943 147.801 134.365 146.507C135.723 145.254 136.063 143.301 135.766 141.455L136.148 141.391H136.127Z" fill="black"/>
<path d="M130.438 151.389C130.438 151.389 132.263 147.61 134.598 146.698" stroke="black" stroke-width="0.12" stroke-miterlimit="10"/>
<path d="M122.032 149.648C122.032 149.648 120.843 150.943 120.928 151.665" stroke="black" stroke-width="0.12" stroke-miterlimit="10"/>
<path d="M127.105 96.2842C134.683 99.6168 138.483 116.619 136.594 124.24C134.853 132.03 128.91 137.761 123.178 142.834C121.417 144.554 118.7 145.785 118.7 148.544C118.53 147.271 119.103 145.955 120.016 145.021L122.669 142.304C129.377 135.278 135.936 126.681 134.896 116.534C134.068 109.508 133.346 100.763 127.127 96.2842H127.105Z" fill="black"/>
<path d="M37.7835 100.551C36.8707 100.954 36.0217 98.3008 32.307 97.0908C29.5051 96.1993 28.9532 97.2394 24.8989 96.8361C23.0309 96.6451 20.8021 95.5837 16.0474 93.2913C13.4789 92.0601 12.6299 88.961 12.6299 88.961C11.9718 87.7723 11.9506 87.5813 11.2077 86.5624C10.0827 85.0553 8.70293 84.4185 7.66282 84.2911C2.8656 83.6968 2.73824 79.218 2.33493 77.9019C2.3137 77.817 2.41984 77.7746 2.46229 77.8382C6.72885 83.2723 7.72651 80.5553 7.93877 78.7298C8.00245 78.1566 8.5968 77.7958 9.14869 78.008C9.80672 78.284 10.5921 78.5387 10.9105 78.5175C11.4412 78.4538 11.4624 78.008 12.0567 77.8382C12.6086 77.6896 12.8846 78.008 14.0308 78.3689C15.1558 78.7298 15.7502 78.9208 16.3233 78.7085C17.1512 78.3901 17.3846 78.0293 17.7667 77.35C18.7219 75.5882 19.295 78.1991 20.4201 78.0717C21.7573 77.9231 22.6701 75.0151 23.3281 75.9278C24.0286 76.883 24.2621 77.2651 25.663 78.284C27.1701 79.409 28.7197 79.4727 29.3353 79.6C34.557 80.6826 40.1609 99.4894 37.7623 100.551H37.7835Z" stroke="black" stroke-width="0.28" stroke-miterlimit="10"/>
<path d="M2.63211 78.2415C4.75478 79.685 6.21942 81.7864 8.72417 82.6991C9.89164 83.1661 11.144 83.7817 12.0355 84.7794C12.9483 85.7558 13.5851 86.9445 14.137 88.0695C16.2596 92.8667 21.8847 94.4587 26.5758 95.6899L26.4484 96.1781C21.63 94.8196 15.9412 93.2488 13.4789 88.4091C12.8846 87.2629 12.3539 86.1379 11.5898 85.1614C9.08502 82.2958 4.24534 82.1897 2.39862 78.4538L2.63211 78.2415Z" fill="black"/>
<path d="M28.4225 92.9729C20.696 90.2134 15.0073 84.1213 9.6369 78.2628L9.80672 78.0717C15.6228 83.5058 21.0569 89.4705 28.6348 92.5059L28.4437 92.9729H28.4225Z" fill="black"/>
<path d="M29.4202 93.4611C19.6134 94.0554 13.5002 85.2039 8.21472 78.3265L8.61803 78.0081C13.9035 84.7581 19.9106 93.1851 29.3989 92.9729V93.4823L29.4202 93.4611Z" fill="black"/>
<path d="M31.4155 90.553C26.2362 86.9657 21.4177 82.2746 16.1111 78.8996L16.2172 78.6024C19.2314 79.9184 21.7361 81.9774 24.3682 83.9091C26.9367 85.8619 29.4202 87.9209 31.7551 90.1709L31.4367 90.553H31.4155Z" fill="black"/>
<path d="M31.7976 90.8714C25.1748 87.0082 19.1677 82.2322 12.7572 78.0505L12.9695 77.7533C19.295 82.0836 25.9815 85.7982 32.0947 90.4469L31.8188 90.8714H31.7976Z" fill="black"/>
<path d="M31.9461 86.9445C31.9461 86.9445 25.0899 82.7628 22.0121 76.8406" stroke="black" stroke-width="0.28" stroke-miterlimit="10"/>
<path d="M31.9462 86.9445C31.9462 86.9445 25.0899 81.3194 25.0899 77.7746" stroke="black" stroke-width="0.28" stroke-miterlimit="10"/>
<path d="M30.3754 96.7088C30.3754 96.7088 26.5546 96.9847 22.9673 93.9493C22.8611 93.8644 22.9248 93.6733 23.0734 93.6946C24.2833 93.8007 27.5098 94.0554 27.8918 93.3125C28.2739 92.612 27.531 92.2512 27.0852 92.0601C27.0216 92.0389 26.7881 91.8266 26.8093 91.7842L26.9154 91.487C27.0428 91.1686 26.9154 90.829 26.6395 90.6592C25.6206 90.0011 24.2409 89.0672 24.2409 88.8973C24.2409 88.7275 30.2268 90.4044 30.6513 90.0224C31.0758 89.6403 28.6348 86.1166 28.5711 85.6921C28.5074 85.2676 29.9084 85.5011 30.8424 86.1591C31.7763 86.8171 30.2905 81.5741 30.1419 80.7888C29.8872 79.5152 31.0546 80.4704 31.0546 80.4704C35.3424 83.7817 40.2245 99.4682 37.8259 100.53C36.9132 100.933 33.6443 96.4753 30.3754 96.7088Z" fill="black"/>
<path d="M30.3754 96.7088C30.3754 96.7088 26.5546 96.9847 22.9673 93.9493C22.8611 93.8644 22.9248 93.6733 23.0734 93.6946C24.2833 93.8007 27.5098 94.0554 27.8918 93.3125C28.2739 92.612 27.531 92.2512 27.0852 92.0601C27.0216 92.0389 26.7881 91.8266 26.8093 91.7842L26.9154 91.487C27.0428 91.1686 26.9154 90.829 26.6395 90.6592C25.6206 90.0011 24.2409 89.0672 24.2409 88.8973C24.2409 88.7275 30.2268 90.4044 30.6513 90.0224C31.0758 89.6403 28.6348 86.1166 28.5711 85.6921C28.5074 85.2676 29.9084 85.5011 30.8424 86.1591C31.7763 86.8171 30.2905 81.5741 30.1419 80.7888C29.8872 79.5152 31.0546 80.4704 31.0546 80.4704C35.3424 83.7817 40.2245 99.4682 37.8259 100.53C36.9132 100.933 33.6443 96.4753 30.3754 96.7088" stroke="black" stroke-width="0.24" stroke-miterlimit="10"/>
<path d="M72.5103 36.9981C67.7768 37.274 53.0667 41.9651 47.3143 45.9133C43.4298 48.5666 36.5311 56.1658 33.3259 67.9678C32.7103 70.2603 30.8211 81.1496 32.7103 88.0907C36.9769 103.883 38.6113 101.909 43.1538 109.487C43.1538 109.487 45.8496 113.329 47.7812 114.667C47.9511 114.794 48.8426 114.985 49.9251 115.558C49.9251 115.558 50.6468 115.94 51.3261 116.428C53.2577 117.808 53.2365 119.421 54.786 120.143C56.3993 120.886 59.2861 120.058 63.4253 121.693C63.4678 121.693 63.5102 121.714 63.5739 121.756C66.6305 122.987 67.5008 123.667 68.5834 123.985C70.1754 124.452 71.6825 124.112 72.8499 123.56C75.8429 122.138 76.4797 121.544 78.8146 118.148C79.0269 117.851 79.0057 117.468 78.8146 117.171C78.4963 116.726 78.0505 115.94 77.7958 114.879C77.4561 113.435 77.5623 112.523 77.6896 111.037C77.7321 110.442 77.8382 109.869 77.9656 109.296C78.1778 108.447 78.4538 106.876 78.1566 105.051C77.159 98.789 74.3146 97.2606 72.1919 92.4846C71.8735 91.7629 70.982 88.494 70.4301 88.7912C70.1329 88.9398 69.7509 89.7252 69.199 89.9799C68.9442 90.1072 68.5622 90.0223 68.3711 89.8101C67.0763 88.494 66.3121 87.369 64.3168 86.3501C63.956 86.1803 63.9347 86.1803 63.68 86.053C60.5385 84.4822 57.3333 79.6213 58.904 76.9255C59.0738 76.6071 60.5809 74.7816 62.9371 74.8028C63.2343 74.8028 63.3829 74.5905 63.2767 74.3146C61.8333 70.4726 55.4653 57.5668 74.3146 44.9581C77.7533 42.6444 78.7297 36.6372 72.5528 36.9981H72.5103Z" fill="#E72C37"/>
<path d="M72.5103 37.3165C64.5928 38.484 56.6965 41.3496 49.5431 44.9369C39.142 51.1775 33.4532 63.7862 32.4556 75.567C31.373 83.718 33.5169 91.7629 36.7222 99.171C38.2929 102.886 41.392 105.751 43.4086 109.339C44.6822 111.058 46.1256 113.032 47.8874 114.391C49.9464 115.091 52.345 116.301 53.4488 118.36C53.8521 119.018 54.2766 119.57 54.9134 119.846C55.529 120.101 56.2932 120.143 57.0573 120.185C60.1352 120.164 63.2767 121.013 66.0362 122.372C67.4584 123.03 68.732 123.836 70.1542 123.773C73.4231 123.582 76.3524 121.204 78.0505 118.424L78.3689 117.957C78.475 117.787 78.475 117.787 78.475 117.681C77.2227 115.749 76.8193 113.266 77.159 111.058C78.3052 106.622 77.7321 102.037 75.1212 98.1522C73.4019 95.6262 71.8523 92.9092 70.9608 89.9587C70.8334 89.6403 70.6424 89.2582 70.4726 89.0884C70.4089 89.0671 70.515 89.1096 70.5787 89.0671C70.0056 89.6827 69.199 90.9351 68.1801 90.0436C66.9914 88.7912 65.8876 87.4751 64.3805 86.7322C62.9796 86.1591 61.6423 85.1402 60.6234 83.9727C59.1588 82.2109 57.7153 79.8335 58.3521 77.4349C58.9677 75.6094 61.3239 74.4844 62.9796 74.5056C57.5243 63.0857 62.7248 52.4936 72.6802 45.7223C76.883 43.6845 79.1967 37.0618 72.5528 37.3165H72.5103ZM72.4679 36.7009C79.7062 36.4038 77.8382 43.8755 72.9986 46.2529C63.8498 52.3662 58.2036 62.831 63.2131 73.4868C63.3192 73.9113 63.7225 74.2934 63.4678 74.8453C63.2343 75.2273 62.7885 75.1424 62.6824 75.1637C57.3545 75.8217 58.1823 80.4279 61.0267 83.5907C63.0008 85.9256 66.3971 86.6685 68.1589 89.237C69.5811 91.2535 70.0693 86.2864 71.4702 89.7676C72.3617 92.7394 73.8901 95.2866 75.6943 97.8125C78.4326 101.655 79.3029 106.622 78.1566 111.207C77.9019 113.266 77.9868 115.261 79.1543 116.938C79.685 117.638 79.2816 118.445 78.7934 119.039C76.9043 122.011 73.8264 124.494 70.1117 124.686C68.6471 124.813 66.9065 123.752 65.6541 123.157C62.9159 121.756 60.0715 120.95 56.9724 120.907C55.3804 120.95 53.5974 120.292 52.8969 118.742C52.1752 117.405 51.0077 116.513 49.6492 115.834C46.6138 114.964 44.6609 112.162 42.8567 109.699C40.9038 106.176 37.7835 103.331 36.149 99.4682C34.4721 95.7111 33.3471 91.7841 32.2858 87.8148C29.4626 72.0221 35.1089 53.1728 49.2034 44.4274C56.5266 40.7552 64.2956 37.9321 72.4467 36.7221L72.4679 36.7009Z" fill="black"/>
<path d="M73.1684 116.365C61.0055 113.881 63.5951 110.697 60.9206 106.24C60.9206 106.24 61.0479 105.921 63.3616 109.424C63.3616 109.424 61.6847 100.466 70.1966 103.523C64.8263 101.739 58.3309 109.424 73.1896 116.365H73.1684Z" fill="black"/>
<path d="M100.805 90.6591C101.294 90.7228 110.803 109.254 94.0554 111.695C92.5059 111.928 93.2488 111.907 85.6072 112.141C82.593 112.225 81.2769 112.438 79.8335 113.393C78.3052 114.391 77.3925 115.855 76.8618 115.579C76.5009 115.388 76.5434 114.497 76.7557 113.902C76.9892 113.223 77.8382 112.077 81.8288 111.376C85.0341 110.803 85.8407 111.313 89.6615 111.143C92.7818 110.994 95.1592 110.74 97.9399 109.551C107.768 105.369 100.572 90.6379 100.784 90.6591H100.805Z" fill="black"/>
<path d="M63.8074 122.414C63.8074 122.669 62.4701 122.902 61.3239 122.902C60.0503 122.902 59.6682 122.669 58.9253 122.648C58.4583 122.648 57.3757 122.69 54.1068 125.407C51.6021 127.487 49.352 127.636 47.4416 127.19C30.6726 123.327 29.2079 115.133 29.1018 114.2C29.1018 114.2 29.123 114.178 29.123 114.2C29.59 115.133 34.4297 124.112 47.1445 125.726C48.227 125.853 50.6893 126.66 52.4299 125.025C53.5761 123.964 54.2129 123.369 55.2106 122.796C55.996 122.351 57.0149 121.735 58.4795 121.565C59.3922 121.459 60.114 121.565 61.5574 121.799C62.5338 121.947 63.8074 122.16 63.8074 122.414Z" fill="black"/>
<path d="M67.5433 119.761C67.4796 119.909 64.5715 120.398 62.7036 118.976C62.2154 118.593 61.5998 118.042 60.5385 117.596C59.7743 117.277 59.7319 117.426 59.1375 117.129C58.0125 116.577 58.0337 116.089 56.6115 114.858C55.6988 114.051 54.8497 113.52 54.6375 113.393C53.661 112.799 53.3426 112.756 52.6846 112.268C51.6445 111.483 50.944 110.527 51.0289 110.442C51.1138 110.357 51.878 111.1 53.5124 112.098C54.3827 112.629 54.3827 112.544 55.0195 112.947C56.845 114.072 56.845 114.688 58.4158 115.685C59.4559 116.343 59.4347 116.067 61.0691 116.98C62.0668 117.532 62.2578 117.744 63.6588 118.636C65.9088 120.079 67.607 119.676 67.5433 119.782V119.761Z" fill="black"/>
<path d="M73.0834 113.287C72.574 112.671 72.4466 112.353 72.2768 112.034C72.2344 111.95 72.0221 111.928 71.8947 111.843C71.5339 111.652 71.2367 111.843 70.7697 111.78C69.9631 111.674 69.2414 111.164 69.3263 111.037C69.3688 110.952 69.4324 111.079 70.4513 111.228C71.3004 111.334 71.449 111.27 71.4914 111.207C71.5976 111.037 71.5763 110.761 71.449 110.591C71.1306 110.166 70.6211 110.145 70.0268 109.954C69.0504 109.636 68.6046 108.766 68.3074 108.256C67.8404 107.449 67.5857 106.579 67.5433 106.282C67.5433 106.24 67.5857 106.218 67.607 106.261C67.7343 106.409 68.0952 106.834 68.6471 107.916C68.6471 107.916 68.7107 106.749 68.7744 105.921C68.8169 105.199 70.0268 106.707 70.6848 107.067C71.2155 107.365 71.5127 106.749 71.5763 106.367C71.5763 106.346 71.6188 106.324 71.64 106.367C72.1495 106.94 72.0646 107.386 72.0009 109.721C71.9796 110.697 73.1259 111.419 73.0834 113.308V113.287Z" fill="black"/>
<path d="M68.2225 123.603C72.0858 124.027 77.0741 119.591 77.8807 117.957C78.008 117.681 77.6896 117.426 77.4349 117.596C76.5009 118.275 76.4797 118.381 74.2297 119.251C74.5269 119.018 77.0741 118.063 78.0929 114.751C78.0929 114.751 79.6213 117.129 78.7085 118.615C77.0741 121.289 74.2509 123.072 73.0622 123.476C69.6872 124.622 68.2225 123.603 68.2225 123.603Z" fill="black"/>
<path d="M72.8924 94.7134C72.5952 94.5224 72.0009 94.3738 71.449 94.0766C70.1542 93.4186 68.3287 92.5059 66.0999 92.803C65.5055 92.8879 63.7649 93.1427 62.364 94.5861C61.239 95.7535 60.9418 97.1121 60.8144 97.6852C60.3474 99.8715 61.1328 101.57 61.1328 101.57C61.0479 100.933 60.7508 98.2158 62.5126 95.987C62.8522 95.5625 63.68 94.5436 65.1447 94.0342C66.5881 93.5247 67.8405 93.7795 68.9018 93.9917C69.6447 94.1403 71.7462 94.6073 73.6778 96.3267C76.6283 98.9375 76.9679 102.504 77.0316 103.31C76.883 102.461 76.1613 98.7253 72.8287 96.454C72.0433 95.9234 69.6872 94.3314 66.7791 94.9257C66.2697 95.0318 64.2956 95.4776 62.9159 97.2819C61.9182 98.5979 61.7484 99.9777 61.6635 100.636C61.43 102.737 62.1517 104.372 62.5126 105.072C62.4064 104.393 62.3003 103.395 62.3428 102.185C62.3852 100.339 62.4064 100.02 62.8097 99.1286C63.6588 97.2819 65.4418 96.5177 65.8239 96.3479C67.6919 95.5413 69.39 95.9446 69.8358 96.0507C71.7886 96.5389 73.041 97.7276 73.8052 98.5767C77.3288 102.525 78.008 107.046 77.7533 110.421C77.7533 110.421 79.3241 106.367 78.0717 103.034C76.8193 99.7017 74.909 96.0932 73.9325 95.0743C72.9561 94.0554 72.8924 94.7134 72.8924 94.7134Z" fill="black"/>
<path d="M51.1351 108.596C54.5348 108.596 57.2908 105.84 57.2908 102.44C57.2908 99.0402 54.5348 96.2842 51.1351 96.2842C47.7354 96.2842 44.9793 99.0402 44.9793 102.44C44.9793 105.84 47.7354 108.596 51.1351 108.596Z" fill="#A21007"/>
<path d="M75.1 44.3001C75.1424 44.1515 75.0151 44.0454 75.0151 44.0666C78.3264 42.8779 81.468 46.1468 84.2062 47.6114C85.6496 48.6515 87.1992 49.0336 88.8336 49.6704C91.9327 51.1987 94.5436 53.3639 97.9399 54.2342C102.928 56.2082 107.81 54.3191 112.862 53.6398C116.28 53.3426 119.676 54.4464 122.945 53.0879C125.301 52.1115 127.296 50.3497 129.822 49.6916L131.032 49.2671L131.329 49.161L131.478 49.1185C131.478 49.1185 131.605 49.0548 131.499 49.1398C131.414 49.2034 131.584 49.3732 131.499 49.2883C129.101 47.76 126.235 48.9699 123.582 48.5454C121.056 47.8449 118.551 47.9298 115.983 47.3355C115.197 47.1444 114.178 46.8685 113.669 46.0831C113.393 45.7223 113.223 45.319 112.947 45.043C112.332 44.385 111.631 44.5548 110.761 44.5972C108.85 44.6397 109.466 42.4958 108.596 41.4981C106.961 39.6939 103.268 39.6302 102.631 36.7221C102.631 34.7268 101.824 33.899 100.423 32.6042C98.7253 30.3966 99.2984 27.2338 100.636 25.0262C101.909 23.7526 103.841 23.7951 105.136 22.6276C106.324 21.5451 107.046 19.7833 108.299 18.6582L109.19 17.7243L109.636 17.2573L109.827 17.0238L109.848 17.0026C109.699 17.1724 109.891 17.4695 110.124 17.3846L109.975 17.4271C103.501 19.5498 97.0059 22.3092 90.1709 22.946C85.6496 22.8187 82.9114 26.5333 80.0882 29.6749C77.7533 32.1796 75.6306 34.8542 72.8924 37.0618L72.7226 36.5099C73.6778 36.5099 74.633 36.7009 75.4608 37.2104C78.0293 38.6962 77.1377 42.2623 75.5457 44.1515C75.4608 44.2364 75.3971 44.3638 75.3759 44.3213C75.3547 44.3001 75.2273 44.2364 75.1 44.2788V44.3001ZM74.6542 44.6821C74.6542 44.4487 74.9089 43.9392 75.1 43.7906C77.3925 41.0524 77.0104 37.0618 72.765 37.1255L71.8523 37.1679L72.574 36.5736C76.4373 33.3683 79.5788 29.123 83.1237 25.4932C84.9067 23.5404 87.5388 22.3941 90.1709 22.3517C96.921 21.7149 103.374 18.9979 109.806 16.8964C110.145 16.7054 110.591 16.9813 110.336 17.3634C109.296 18.5309 108.023 19.6984 107.131 20.972C106.707 21.63 106.24 22.5215 105.518 23.0522C104.096 24.2409 102.1 24.1984 100.954 25.3022C100.041 26.5546 99.7442 28.4862 99.9352 30.0357C100.105 32.0098 101.803 32.4768 102.822 34.0051C103.395 34.7481 103.395 35.958 103.331 36.6372C103.735 39.8425 108.808 39.2906 109.53 42.4534C109.636 42.8991 109.636 43.3236 109.848 43.5996C110.251 44.2576 111.058 43.5996 112.077 43.918C113.075 44.2152 113.541 45.1916 113.966 45.8072C115.728 47.5902 118.763 47.1657 121.119 47.569C122.839 47.9298 124.388 48.3544 126.15 48.1633C127.997 48.0147 130.077 47.8025 131.733 48.9063C131.733 48.885 132.009 49.161 131.86 49.3096C131.69 49.5006 131.648 49.4369 131.605 49.4794C131.605 49.4794 131.202 49.6067 131.16 49.628C129.971 50.01 128.719 50.477 127.572 50.9865C126.044 51.6021 124.792 52.9181 123.136 53.5549C119.952 55.1045 116.301 54.2766 112.926 54.6162C109.593 55.0408 106.24 56.3993 102.758 56.2295C97.3668 56.187 93.079 52.5148 88.6002 50.1162C87.0506 49.5218 85.2888 49.0124 83.909 47.9935C81.3406 46.6138 78.3477 43.4722 75.2698 44.5336C75.1 44.6609 74.7816 44.6609 74.6542 44.6397V44.6821Z" fill="black"/>
<path d="M77.7109 34.9603C77.7109 35.2363 77.6472 35.4698 77.5835 35.6396C77.5411 35.7669 77.6684 35.8731 77.7745 35.8306C78.1566 35.682 78.5175 35.6184 78.7297 35.5759C78.8571 35.5759 78.942 35.682 78.8996 35.7882C78.5175 36.6372 79.1755 36.6797 79.1755 36.6797C82.402 35.8731 86.1166 36.3613 87.5176 36.616C87.6662 36.6372 87.6874 36.8495 87.5176 36.9132L82.9539 38.2929C82.8265 38.3354 82.8053 38.484 82.9326 38.5689C83.06 38.6538 83.1237 38.7387 83.1449 38.8236C83.1661 38.8873 83.1449 38.9509 83.1024 38.9934C82.4869 39.4604 82.0199 39.7576 81.7864 39.9061C81.7227 39.9486 81.7439 40.0335 81.8288 40.0335C84.9279 40.3519 86.3077 41.201 86.8171 41.6467C86.9232 41.7316 86.8596 41.9227 86.711 41.9015C80.9585 41.583 78.9632 42.4109 78.3477 42.793C78.2203 42.8779 78.2203 43.0052 78.3689 43.0689C79.0906 43.3661 79.4302 43.7269 79.5788 44.0029C79.685 44.1727 79.5364 44.3637 79.3453 44.3425C77.9656 44.109 76.3736 43.918 75.4608 43.8755C75.567 43.8755 86.3714 45.9557 90.8502 47.8237C91.1261 47.9298 91.3596 47.6114 91.1686 47.3779L89.7039 45.4039C89.5766 45.2765 89.7252 45.0642 89.895 45.1279C91.0837 45.6373 93.5035 46.6775 94.8408 47.2506C95.0955 47.3567 95.329 47.0595 95.1592 46.826L93.27 44.4062C93.1427 44.2364 93.2488 43.9817 93.4611 43.9604L97.0271 41.8802C97.2606 41.859 97.197 41.4132 96.9635 41.3496C93.9281 40.5429 93.4398 39.8849 93.3974 39.8425C93.1427 39.5665 93.2276 39.5877 91.2323 38.9509C90.8714 38.8448 91.5719 38.5901 91.9752 38.4627C92.0601 38.4415 92.1662 38.3566 92.1662 38.2505C92.1662 37.7198 96.8149 37.8684 99.2135 37.741C99.4894 37.741 99.4682 37.274 99.1923 37.2104L91.6992 34.2174C90.553 34.0476 91.4021 33.8778 91.5719 33.7292L92.421 33.0287C92.421 33.0287 92.4846 32.8589 92.3997 32.8164C88.4516 31.0122 77.2863 33.5381 73.2108 36.4037C73.2108 36.4037 77.6472 34.6419 77.6472 34.9816L77.7109 34.9603Z" fill="black" stroke="black" stroke-width="0.22" stroke-miterlimit="10"/>
<path d="M103.968 20.0592C95.4988 23.6041 90.6591 23.2432 87.2629 24.8989C81.5104 27.7008 83.4421 31.9461 78.4538 34.1113" stroke="black" stroke-width="0.3" stroke-miterlimit="10"/>
<path d="M90.5955 43.6845C93.3337 45.6373 98.5979 52.3025 109.891 44.2788C109.975 44.2152 109.933 44.109 109.891 44.0241L109.721 43.8331C109.615 43.7057 109.508 43.6845 109.381 43.7694C98.6404 51.3473 93.737 44.7883 90.6591 43.5784C90.5955 43.5571 90.5742 43.642 90.6167 43.6633L90.5955 43.6845Z" stroke="black" stroke-width="0.22" stroke-miterlimit="10"/>
<path d="M94.6498 43.0052C97.0059 41.3071 99.0861 40.5854 104.181 38.6326L104.69 38.9722C104.69 38.9722 104.754 39.1632 104.669 39.1844C103.331 39.5665 98.1097 41.9227 94.6922 43.0902C94.6498 43.0902 94.6073 43.0265 94.6498 43.0052V43.0052Z" stroke="black" stroke-width="0.22" stroke-miterlimit="10"/>
<path d="M91.6143 37.1255C94.2889 35.8943 93.9917 34.5146 101.379 33.0075C101.379 33.0075 101.973 33.5806 101.867 33.6018C93.8431 35.3636 92.2724 37.1255 91.6356 37.2104C91.5931 37.2104 91.5719 37.1467 91.6356 37.1255H91.6143Z" stroke="black" stroke-width="0.22" stroke-miterlimit="10"/>
<path d="M69.2839 88.6002C69.6235 87.7935 69.2202 85.968 69.5174 84.8855C69.666 83.6331 70.8334 82.2746 71.4278 81.2133C72.8075 78.8996 74.3571 76.6283 74.6542 73.975C74.9726 71.3429 74.4844 68.6471 73.699 66.0999C72.9986 63.0432 70.1966 59.4347 71.4915 56.1658C73.0622 54.2554 72.0009 51.4959 73.4019 49.4582C73.9538 48.8001 74.2297 47.9511 74.1448 47.102C74.1023 46.9534 74.1873 47.2506 74.4207 47.1232C74.5269 47.0171 74.3571 47.3143 74.3146 47.4204C74.1023 47.9086 73.8476 48.3968 73.5292 48.8001C72.2981 50.3072 70.1542 51.3261 70.0268 53.4063C69.9631 54.0007 70.0056 54.8285 69.5811 55.4865C68.2013 57.0785 66.5669 57.9488 66.015 60.1989C65.6754 61.1965 65.8876 62.1942 65.5904 63.2343C65.3357 63.8286 64.8687 63.6164 64.4018 63.489C64.2107 63.4678 63.7225 63.489 63.4678 63.5527C63.2343 63.5527 63.1918 63.8074 63.0857 64.1258C62.5975 67.5857 63.5315 71.1306 64.2744 74.5056C64.5079 75.1637 64.1895 76.0764 63.4253 76.0764C62.2366 76.4373 60.3475 77.3712 59.9229 78.5599C59.8592 79.0269 60.0927 79.8972 60.496 80.1944C60.963 80.534 61.7909 80.7038 62.3428 81.3194C62.9159 81.9774 62.9583 82.6991 63.298 83.2935C63.5951 84.0576 64.1046 84.1426 64.7202 84.6732C64.9961 84.9067 65.2508 85.31 65.3994 85.4586C66.8216 85.9256 68.456 87.4751 69.2839 88.5789V88.6002ZM69.4749 89.152C69.0079 89.237 68.8381 88.9185 68.732 88.8336C68.4136 88.4303 68.0527 88.027 67.6707 87.6662C66.8216 86.8383 66.1211 86.435 65.0386 85.9256C64.4442 85.2251 64.2532 84.9916 63.4678 84.5459C62.5975 83.8454 62.5126 82.4656 61.897 81.7439C61.4937 81.2557 60.8144 81.1496 60.1352 80.6826C59.4559 80.1095 59.2861 79.3241 59.3286 78.475C59.7743 76.8618 62.3215 75.8005 63.6376 75.4184C63.8074 75.2486 63.7437 74.9089 63.7013 74.6755C62.9796 71.0457 61.706 67.14 62.7248 63.4678C63.1494 62.7461 64.3593 62.8734 65.0173 63.1069C65.357 62.3215 65.1022 61.0055 65.4631 60.0715C65.8876 58.713 66.6306 57.5243 67.6919 56.5266C68.9443 55.72 69.4962 54.8922 69.4537 53.3639C69.666 50.4983 72.9137 49.6704 73.8052 47.2294C73.9113 47.0595 73.8052 46.9746 74.166 46.635C75.6307 48.3756 73.6566 49.6492 73.4231 50.6256C72.9349 52.4511 73.5505 54.9983 71.9585 56.5479C71.6401 56.9299 71.6401 57.6517 71.725 58.2885C72.8075 63.4465 76.0764 68.456 75.2274 74.0599C74.7816 77.5623 72.574 80.3642 70.8334 83.251C69.7509 84.6308 70.0056 86.3501 70.0056 87.9846C69.9419 88.303 70.0905 88.7912 69.4749 89.152Z" fill="black"/>
<path d="M63.956 63.1918C63.6376 64.8263 63.4041 66.6306 63.8499 68.2438C64.4018 69.8995 64.5503 71.8099 63.8923 73.4655L63.3404 73.2745C63.8499 71.6613 64.0621 69.9844 63.5527 68.3287C63.0433 66.6305 63.298 64.8475 63.3617 63.1069L63.9348 63.1918H63.956Z" fill="black"/>
<path d="M65.3994 63.5314C65.548 63.4041 65.4419 63.489 65.4419 63.5314C64.9324 65.5268 64.8687 67.8405 65.6754 69.7296C66.7155 71.9797 65.6329 74.4844 64.4867 76.4373L63.7225 75.949C64.2744 75.0575 64.7414 74.0599 65.0386 73.041C65.3357 72.0009 65.3994 70.982 65.0173 70.0056C64.423 68.0315 64.5503 66.0362 64.7838 64.0409C64.8687 63.68 64.7838 63.2979 65.1022 63.022L65.3994 63.5314Z" fill="black"/>
<path d="M67.3098 74.7816C68.6683 71.6613 69.0079 68.6471 67.6919 65.3994C67.2037 62.0668 67.3523 58.5644 69.0504 55.5927L69.3688 55.8049C67.798 58.6069 67.7131 62.1729 68.2438 65.272C69.7297 68.3924 69.5598 71.9584 68.3075 75.1424L67.3098 74.7816Z" fill="black"/>
<path d="M69.8782 79.8335C72.0221 78.7297 72.0646 75.4396 72.4254 73.2533C72.6165 70.7273 73.1047 68.0103 71.4702 65.9513C69.5386 62.4489 69.6235 58.2035 70.5787 54.4464C70.7698 53.194 70.8971 51.9204 70.9396 50.6681H71.5339C71.7886 53.3214 70.6848 55.8686 70.4514 58.3309C70.324 61.6423 71.2367 64.614 72.8924 67.4159C73.6141 70.6424 73.0622 73.9962 72.4467 77.1802C72.107 78.4113 71.6188 79.8972 70.1542 80.534L69.8782 79.8123V79.8335Z" fill="black"/>
<path d="M72.6165 79.2604C75.1212 73.7839 73.2533 67.7131 72.2981 62.0668L72.6801 62.0031C73.7203 67.7131 75.5457 73.8476 73.1259 79.4939L72.5952 79.2816L72.6165 79.2604Z" fill="black"/>
<path d="M67.0339 57.779C67.3947 57.7366 67.1612 57.779 67.1825 57.8427C66.9914 58.1611 66.7155 58.8616 66.5881 59.2224C66.0574 60.8144 65.4419 62.6399 65.8664 64.2744C66.3122 65.3782 66.5032 66.6305 66.4183 67.8192C66.3546 69.0292 66.1211 70.1966 65.8664 71.3429L65.5268 71.2792C65.9938 69.0079 66.4183 66.6093 65.4843 64.4017C65.1235 63.1706 65.3782 61.9394 65.6329 60.7932C65.9089 59.7319 66.2485 58.5856 66.7579 57.6092C66.8428 57.4818 66.8641 57.3333 67.1825 57.312L67.0339 57.8002V57.779Z" fill="black"/>
<path d="M69.3263 55.7413C68.0103 58.904 69.199 62.1517 70.1117 65.272C71.1094 68.4985 70.7273 72.0646 69.1353 75.0575L68.4985 74.7179C70.0905 71.8523 70.5363 68.5622 69.6447 65.3782C68.8169 62.2578 67.6707 58.7979 69.0928 55.6351L69.3263 55.72V55.7413Z" fill="black"/>
<path d="M71.3004 81.6166C71.1094 81.8076 70.7697 81.9774 70.5787 81.7864C70.4513 81.659 70.4938 81.4468 70.5362 81.277C71.1306 78.6024 71.5551 75.8854 71.8099 73.1471C71.8099 73.1047 71.7674 73.0835 71.7249 73.1259C71.4065 73.5504 71.258 74.0811 71.0669 74.5905C70.8546 75.1212 70.5575 75.6731 70.0693 75.9278C70.048 75.9278 70.0268 75.9278 70.0056 75.9066C69.7509 75.1 69.4325 74.2509 68.732 73.7627C68.0315 73.2745 67.14 73.2745 66.2909 73.1684C66.1423 73.1684 65.9937 73.1259 65.8876 73.0198C65.8027 72.9349 65.7815 72.8075 65.7602 72.7014L65.2296 70.0693C64.9536 70.4938 64.7626 71.0032 64.6989 71.5127C64.6777 71.7037 64.5928 71.9797 64.4017 71.9797C64.3168 71.9797 64.2531 71.916 64.1682 71.8735L63.5102 71.3216C62.8097 70.7697 63.213 71.1306 63.1918 71.2155C63.0645 71.6613 63.3404 72.0433 63.4253 72.4891C63.6163 73.4443 63.8498 74.1872 63.956 75.2061C63.956 75.3123 63.68 75.5882 63.6163 75.6943C63.5102 75.8429 63.3829 75.9491 63.213 76.034C62.2791 76.4797 61.3875 77.0528 60.6022 77.7321C60.2838 78.008 59.9654 78.3264 59.8805 78.7297C59.7743 79.1755 59.9654 79.6213 60.2625 79.9609C60.5597 80.3005 60.9206 80.5765 61.2602 80.8524C62.1093 81.5317 62.6611 82.6779 63.2555 83.6119C63.6163 84.1638 64.1046 84.4397 64.5503 84.9279C65.2508 85.6921 66.2697 86.1379 67.0763 86.7959C67.6494 87.2416 68.1164 87.8148 68.6258 88.3242C68.8169 88.5152 69.1141 88.7275 69.3475 88.6002C69.5386 88.494 69.581 88.2181 69.581 87.9846C69.6235 86.7322 69.7721 85.5011 70.0268 84.2699C70.1117 83.8878 70.1966 83.4845 70.3664 83.1449C70.7273 82.402 71.4065 81.8925 71.8735 81.2345C71.9372 81.1284 72.4254 80.2793 72.0858 80.4916C71.9584 80.5765 71.8523 80.9586 71.7674 81.0859C71.64 81.277 71.4914 81.468 71.3216 81.6378L71.3004 81.6166Z" fill="black" stroke="black" stroke-width="0.12" stroke-miterlimit="10"/>
<path d="M45.4251 95.9021C45.4888 96.0295 45.2977 96.2205 45.2128 96.0932C37.3802 82.4232 33.0287 87.1143 30.1843 74.9514C30.0358 74.2934 29.7174 72.9136 29.59 72.5528C29.5475 72.4467 29.6961 72.383 29.7598 72.4679C30.5027 73.4231 31.2032 74.7179 31.4579 74.8028C31.5216 74.824 31.6065 74.7604 31.5853 74.6967C30.1419 68.5834 28.932 69.1353 30.6301 66.3121C32.583 63.0432 30.6938 64.4654 30.8424 60.1989C30.8424 60.1564 30.715 59.4771 30.9273 60.1989C31.1608 60.963 32.6891 62.1517 32.9438 61.621C33.6655 60.1776 28.9744 57.3757 36.0854 50.9016C36.1703 50.8379 36.2764 50.944 36.2127 51.0289C32.9226 54.6587 35.8306 54.5101 37.2316 54.2766C37.55 54.2129 37.741 53.8733 37.5925 53.5761C35.958 50.3709 37.6349 48.0147 38.3566 47.102C38.4627 46.9534 38.6962 46.9959 38.7599 47.1869C39.3967 49.8615 39.8 48.1421 39.7576 46.9959C39.6727 43.6208 42.6869 39.6514 44.3001 38.1019C48.036 34.5358 45.3614 42.1137 47.1232 40.6703C48.885 39.2269 52.6846 32.498 51.22 37.6349C51.0289 38.2717 58.8828 34.175 57.312 37.0406C56.3144 38.8873 69.3688 36.892 72.3405 37.5288C72.4891 37.55 72.5316 37.7835 72.4042 37.8472C37.7835 51.6233 33.6018 71.1518 45.4039 95.9446L45.4251 95.9021Z" fill="#E72C37"/>
<path d="M45.6798 95.7748C45.8921 96.263 45.1916 96.6875 44.9581 96.2418L44.7458 95.9021L44.3425 95.2229L43.5147 93.8644C40.7765 88.9398 36.1915 86.3077 32.7315 82.126C30.7999 79.409 30.1419 75.8429 29.3353 72.6802C29.1655 72.3193 29.6961 71.916 29.9933 72.2768L30.057 72.3618L30.5452 73.0198L31.4367 74.3358C31.4792 74.4207 31.649 74.5481 31.5641 74.5269C31.4155 74.4844 31.2669 74.6118 31.3094 74.7391C31.182 74.166 30.7999 72.85 30.6301 72.2556C30.3329 71.2367 29.9296 70.2815 29.6112 69.199C28.9532 66.6518 32.0947 65.1235 30.9485 63.2555C30.5027 62.1729 30.5664 60.9418 30.5027 59.9017C30.6726 59.9654 30.0994 59.6682 31.0334 59.6682C31.1183 59.7743 31.0971 59.7531 31.1183 59.7956C31.2881 60.4536 31.8188 60.963 32.3707 61.3026C32.5617 61.4512 32.8377 61.4088 32.7103 61.4725C32.8377 61.2177 32.6254 60.6659 32.4344 60.1989C31.7339 58.6918 31.6065 56.845 32.307 55.3167C33.0924 53.4488 34.5358 51.9417 35.9792 50.6256C36.2764 50.4558 36.6372 50.7318 36.5311 51.0714C36.3401 51.3898 36.3401 51.3261 36.2127 51.4747C34.6632 53.2365 34.3448 54.4677 37.2104 53.9582C37.3165 53.9582 37.4014 53.8096 37.359 53.7035C36.9132 52.812 36.5523 51.6233 36.6372 50.5195C36.7009 49.161 37.3165 47.9298 38.1231 46.8897C38.2717 46.6562 38.6962 46.5926 38.9085 46.8261C39.2057 47.293 39.1632 47.8874 39.4816 48.2907C39.4816 48.2482 39.333 48.2482 39.2906 48.2907C39.2481 48.3331 39.333 48.2058 39.3543 48.0997C39.3543 44.9369 40.734 41.668 42.8567 39.2269C45.3614 36.2339 47.0808 35.3212 46.8473 40.267C46.8473 40.3731 46.8897 40.5005 46.911 40.5005C46.911 40.4368 46.6775 40.4581 46.8048 40.4368C48.3544 39.1208 49.3308 37.0406 50.8803 35.6184C51.0289 35.5335 51.0714 35.3849 51.4747 35.3424C52.3874 35.5547 51.6233 37.083 51.5384 37.6561C51.5384 37.6561 51.5596 37.4863 51.4959 37.4439C51.4535 37.4014 51.411 37.359 51.3686 37.359C51.3261 37.359 51.3686 37.359 51.3686 37.359C51.7931 37.2528 52.9606 36.8283 53.3851 36.6585C54.5101 36.2552 58.8404 34.4085 57.6092 37.1679C62.2578 38.2293 67.607 36.5099 72.5316 37.2104C72.9136 37.359 72.9349 37.9321 72.5528 38.0594C72.2344 38.1868 71.5976 38.4627 71.258 38.6113C43.727 49.6917 31.7551 67.2886 45.701 95.7536L45.6798 95.7748ZM45.1491 96.0295C30.8211 66.7579 43.6208 48.9487 71.7462 37.7835L72.107 37.6137L72.2981 37.5288C72.2981 37.5288 72.1283 37.7198 72.2981 37.7623C67.6707 37.3165 62.9583 38.4203 58.1611 37.9745C57.7578 37.9109 56.845 37.6986 57.0361 37.0193C57.1634 36.5948 57.3545 36.4462 57.2271 36.2976C56.0384 36.1703 54.7648 36.8283 53.5974 37.2104L52.0903 37.7623C51.7719 37.8472 51.3049 38.1019 51.0289 37.8047C50.8379 37.4226 51.2837 36.6797 51.2624 36.0004C51.3049 35.8943 51.1351 35.8306 51.411 36.0004C50.4983 37.0406 49.4157 38.6326 48.3968 39.8425C47.9723 40.2246 47.0595 41.7104 46.3166 40.8614C45.8072 39.7788 46.4864 38.3991 45.9558 37.4014C45.9558 37.3377 45.7647 37.359 45.5525 37.4651C43.0902 39.2057 41.2222 42.1986 40.3307 45.043C39.8637 46.2317 40.4156 47.6963 39.6514 48.7365C39.0146 49.1185 38.7387 48.0784 38.6113 47.6539L38.5052 47.2506C38.4415 47.0808 38.5264 47.2718 38.5689 47.2294C38.5689 47.2294 38.6326 47.1869 38.6113 47.2294C38.5477 47.3143 38.3354 47.6114 38.2717 47.6963C37.0406 49.3945 36.892 51.5808 37.9533 53.5125C38.208 54.3828 37.1891 54.6162 36.5311 54.595C35.9792 54.595 35.3636 54.6799 34.7693 54.2342C33.7929 53.1728 35.3849 51.5596 35.9792 50.8591C35.9155 51.0502 36.1066 51.1988 36.2764 51.0926C35.0452 52.2813 33.5382 53.8096 32.8589 55.5078C32.2009 56.9512 32.3495 58.522 32.9863 59.9441C33.4108 60.6871 33.6867 62.6399 32.0947 61.7909C31.4155 61.3876 30.7999 60.772 30.5876 60.0078C30.5876 60.0078 30.5452 59.9654 30.6089 60.0503C31.5004 60.0078 30.9485 59.7956 31.0971 59.8805V59.9441C31.1395 61.0904 31.0971 62.0668 31.5004 63.0432C31.6914 63.4678 31.9462 64.2107 31.6914 64.7838C31.2669 66.2485 29.7174 67.5433 30.1843 69.0716C30.715 70.7485 31.4367 72.6801 31.8188 74.442C31.9886 74.7604 31.7976 75.2274 31.373 75.1C30.9273 74.909 30.3542 73.7203 30.057 73.3806L29.59 72.7438L29.5475 72.6802C29.5475 72.6802 29.6537 72.7651 29.7174 72.7438C29.8447 72.7863 29.9084 72.4679 29.8872 72.5103L29.9933 72.9136C30.7575 75.8429 31.4367 79.3241 33.2198 81.8076C36.616 85.8831 41.3283 88.7063 44.0241 93.5672L44.8732 94.9469L45.2977 95.6262L45.51 95.9658C45.4675 95.8597 45.0855 95.7748 45.1916 96.0507L45.1491 96.0295Z" fill="black"/>
<path d="M45.4888 96.1356C33.7504 71.4915 37.5076 51.4535 71.5976 37.6986C71.6825 37.6561 71.6401 37.55 71.5551 37.5712C68.7745 38.1656 58.8828 43.7694 58.0338 42.5807C55.4441 38.9722 48.5454 54.2129 47.2506 50.1586C46.1893 46.7836 43.918 62.3215 41.392 58.6705C39.3331 55.6988 39.3543 70.4726 38.5052 67.7343C35.3849 57.5668 39.1208 81.8925 36.7434 78.2628C33.5806 73.4443 34.0901 77.626 45.4676 96.1569L45.4888 96.1356Z" fill="black" stroke="black" stroke-width="0.28" stroke-miterlimit="10"/>
<path d="M41.4982 90.5318C41.4982 90.5318 32.2009 79.6637 30.6938 71.5551" stroke="black" stroke-width="0.28" stroke-miterlimit="10"/>
<path d="M31.4367 63.7225C31.7976 72.0858 38.8873 79.6213 38.951 78.942" stroke="black" stroke-width="0.28" stroke-miterlimit="10"/>
<path d="M39.3543 77.5198C39.3543 77.5198 35.9368 71.8523 31.4367 63.7225" stroke="black" stroke-width="0.28" stroke-miterlimit="10"/>
<path d="M38.3566 83.4421C38.3566 83.4421 30.7999 71.1518 30.0357 67.3947" stroke="black" stroke-width="0.28" stroke-miterlimit="10"/>
<path d="M39.9274 68.0103C39.9274 68.0103 39.7788 58.7555 38.2505 54.9134" stroke="black" stroke-width="0.24" stroke-miterlimit="10"/>
<path d="M40.3519 62.9583C40.2882 59.6257 38.7811 56.463 37.2316 53.4912L37.7623 53.2153C39.3118 56.2507 40.8401 59.4559 40.8614 62.9583H40.3519Z" fill="black"/>
<path d="M44.2789 56.1233C44.4274 50.7742 44.6822 45.4463 46.3166 40.2882L47.1232 40.6279C45.043 45.4251 44.7034 50.9228 44.7671 56.1233H44.2576H44.2789Z" fill="black"/>
<path d="M43.1538 58.8191C45.4888 52.2813 47.569 45.043 48.7577 38.208L49.4794 38.2505C49.3096 40.0972 48.9275 41.859 48.5242 43.6208C47.1657 48.8638 46.0407 54.1917 43.5996 59.0738L43.1538 58.8191Z" fill="black"/>
<path d="M42.9203 58.904C38.9509 53.9582 40.3519 47.1657 41.3496 41.4557L41.859 41.5618C41.1161 46.8261 40.1184 53.5549 43.727 57.9064L42.9203 58.9253V58.904Z" fill="black"/>
<path d="M38.017 72.5952C35.5759 67.1188 30.3329 56.2295 35.5122 51.2624L35.682 51.4535C30.9909 56.463 36.5948 66.8216 39.2057 71.9372L38.017 72.574V72.5952Z" fill="black"/>
<path d="M48.4817 51.0289C49.8827 45.7223 51.9205 40.4793 55.1681 36.0217L55.7625 36.4674C52.7908 41.0099 50.562 45.9982 48.7152 51.1138L48.4605 51.0289H48.4817Z" fill="black"/>
<path d="M57.6941 44.7034C57.0998 43.2175 57.8002 41.4133 58.6918 40.3095C59.0526 39.7576 59.2861 38.9934 59.9017 38.4627C60.5173 37.9321 61.2602 37.7835 61.9182 37.5712L62.0243 37.9109C60.5173 38.3142 59.7531 39.142 59.3286 40.6279C58.6705 41.9015 58.2672 42.9416 58.904 44.2364L57.6729 44.6822L57.6941 44.7034Z" fill="black"/>
<path d="M51.9629 42.0925C52.7908 40.6703 52.8544 38.8236 52.7908 37.1891H53.4488C53.2153 38.9297 53.0243 40.6279 52.2601 42.2623L51.9629 42.0713V42.0925Z" fill="black"/>
<path d="M61.7484 41.8802C62.7248 40.1184 63.956 38.4415 65.6966 37.3377L65.8452 37.5712C64.2319 38.675 63.0857 40.3732 62.2154 42.0925L61.7484 41.859V41.8802Z" fill="black"/>
<path d="M53.2153 47.6539C52.1964 43.6208 56.5479 40.9887 57.1847 37.3802L58.0762 37.6137C57.2908 41.3708 52.8757 43.4935 53.5974 47.5902L53.2153 47.6539Z" fill="black"/>
<path d="M58.904 37.6561C58.904 37.6561 57.0785 41.4345 54.7436 42.3472" stroke="black" stroke-width="0.12" stroke-miterlimit="10"/>
<path d="M67.3098 39.3967C67.3098 39.3967 68.4985 38.1019 68.4136 37.3802" stroke="black" stroke-width="0.12" stroke-miterlimit="10"/>
<path d="M62.2579 92.7606C57.5031 90.4681 55.996 84.7369 53.9158 80.3005C47.4204 66.8004 57.2059 55.4229 66.3546 46.4227C67.7768 44.8732 70.6848 42.8779 70.6636 40.5005C71.0032 42.8779 68.1801 45.2128 66.8853 46.911C59.3073 56.1446 50.2223 67.1824 55.2743 79.8335C56.8875 84.4185 58.0125 89.8313 62.2366 92.7606H62.2579Z" fill="black"/>
<path d="M99.9352 26.7244C100.487 23.4767 102.652 20.8871 104.923 18.6158L105.369 19.0616C103.056 21.2479 100.89 23.6041 100.211 26.8093L99.9352 26.7244Z" fill="black"/>
<path d="M128.676 50.3497C125.407 50.286 123.178 47.8449 118.954 47.7388C113.457 47.6114 110.846 49.819 105.857 50.4558C102.525 50.9016 91.9539 49.0973 85.31 45.7223" stroke="black" stroke-width="0.18" stroke-miterlimit="10"/>
<path d="M81.5317 44.4274C81.5317 44.4274 86.6261 47.9511 90.362 49.6492C100.699 54.3403 102.419 54.5313 111.61 52.536C116.81 51.411 117.914 53.1304 121.119 52.0266C123.709 51.1351 124.388 51.7931 126.829 50.0525" stroke="black" stroke-width="0.24" stroke-miterlimit="10"/>
</g>
<defs>
<clipPath id="clip0_123_1669">
<rect width="190" height="190" fill="white"/>
</clipPath>
</defs>
</svg>
