<?xml version="1.0" encoding="utf-8"?>
<!-- Generator: Adobe Illustrator 26.4.1, SVG Export Plug-In . SVG Version: 6.00 Build 0)  -->
<svg version="1.1" id="Слой_1" xmlns="http://www.w3.org/2000/svg" xmlns:xlink="http://www.w3.org/1999/xlink" x="0px" y="0px"
	 width="31px" height="25px" viewBox="0 0 31 25" style="enable-background:new 0 0 31 25;" xml:space="preserve">
<style type="text/css">
	.st0{fill:none;stroke:#C9D6DF;stroke-width:2;stroke-linecap:round;stroke-linejoin:round;}
</style>
<path class="st0" d="M19.3,5.2C22,5.6,24,7.3,24.6,9.4 M19.3,1c5.6,0.5,10,4,10.6,8.4 M28.5,17.8V21c0,1.2-1.2,2.1-2.7,2.1h-0.3
	c-4.1-0.3-8-1.5-11.5-3.2c-3.2-1.6-5.9-3.8-8-6.3c-2.1-2.9-3.5-6-4-9.2C1.9,3.2,3,2.2,4.4,2.1h4.2c1.3,0,2.5,0.8,2.7,1.8
	s0.5,2,0.9,3c0.4,0.8,0.1,1.6-0.6,2.2L10,10.4c1.9,2.6,4.7,4.8,8,6.3l1.7-1.3c0.7-0.6,1.8-0.8,2.8-0.5c1.2,0.4,2.5,0.6,3.7,0.7
	C27.6,15.8,28.6,16.7,28.5,17.8L28.5,17.8z"/>
</svg>
