<svg width="499" height="108" viewBox="0 0 499 108" fill="none" xmlns="http://www.w3.org/2000/svg">
<g clip-path="url(#clip0_160_2)">
<path d="M419.715 36.8391C418.955 32.2728 410.812 32.5731 409.479 33.2444C408.145 33.9068 400.444 39.2414 400.249 45.2296C400.055 51.2179 398.633 52.4279 398.633 53.3023C398.633 54.1766 395.453 77.6438 424.891 85.4779C442.775 90.2385 444.436 76.84 450.194 73.1658C451.625 72.2561 449.24 72.5388 449.24 72.5388C448.428 71.5407 453.029 70.2247 452.482 69.4917C451.934 68.7586 455.52 62.1079 455.184 61.1894C454.849 60.2709 456.827 58.2306 456.209 57.3916C455.591 56.5525 454.566 56.3317 453.904 57.1354C453.25 57.9392 450.283 67.6281 444.692 73.2188C443.738 74.1727 453.974 55.9254 450.945 58.3366C447.907 60.7478 446.847 67.0363 441.406 72.0088C435.957 76.9814 451.634 57.4357 447.624 59.3258C443.968 61.0481 445.946 60.7478 444.339 63.053C442.731 65.3582 432.468 82.0069 425.182 81.7331C418.726 81.4946 410.777 68.476 409.876 63.7861C408.966 59.0962 406.856 47.7998 419.715 36.8391Z" fill="#E72C37"/>
<path d="M111.593 26.9647C109.128 20.6585 105.419 19.9784 107.079 21.6389C107.91 22.787 108.855 24.8008 109.685 27.4504C110.224 27.1236 111.469 26.9647 111.469 26.9647C111.513 26.9558 111.557 26.9647 111.601 26.9647H111.593Z" fill="#E72C37"/>
<path d="M58.6799 64.6075C52.3474 65.9764 55.5357 67.0098 53.3719 67.2571C49.5035 67.6987 53.9283 66.5682 50.104 66.7007C40.5036 67.0451 34.0121 62.6379 29.4106 57.2414C31.8306 52.7193 34.0298 43.0216 35.2663 34.6663C39.3202 34.2954 42.1906 33.9068 42.4644 33.6241C45.7322 30.1973 51.473 32.2375 56.0392 27.4063C56.7104 26.6997 49.2473 27.3356 50.051 26.8764C51.1462 26.2581 59.413 27.1413 59.5278 26.5054C59.7663 25.1982 61.0469 23.9971 60.3933 23.8557C59.7398 23.7144 47.6134 23.7498 47.1541 23.8292C46.6861 23.9087 47.7547 24.3768 46.6331 24.527C43.7538 24.9156 37.7834 24.6241 36.2908 24.5447C36.3526 22.7517 36.2819 21.3739 36.0523 20.6497C34.9306 17.0285 29.022 13.893 23.4225 15.0589C22.3185 15.2885 22.8661 18.7684 23.5108 19.6075C23.8023 20.1109 24.0673 21.0206 24.2881 22.213C19.5011 22.2924 14.5199 22.2924 6.25309 21.9921C6.04112 21.9921 5.82915 21.948 5.62602 21.895L3.40918 21.2856C3.22371 21.2326 3.0294 21.3386 2.98524 21.524C2.46416 23.5201 0.0176872 33.8273 5.35222 35.2316C8.26679 36 17.143 35.8499 25.4804 35.3818C25.7718 41.7763 25.8602 48.5152 25.8955 52.4632C21.5943 45.7596 19.457 39.1884 17.4697 39.0648C16.3746 38.9941 4.13341 41.7498 7.15395 45.6359C16.039 57.0913 21.5413 70.7988 37.1033 72.1148C37.7745 72.1678 23.9524 76.3366 25.8602 76.107C27.0701 75.9657 32.6432 75.3121 31.2742 75.7007C21.4 78.474 -2.52593 88.525 0.220823 88.4809C8.31978 88.3484 13.3629 91.3513 23.5815 87.8538C34.2682 84.1973 45.3083 85.8842 49.4416 80.9293C53.575 75.9745 46.4741 72.4151 47.949 71.6997C61.0646 65.3494 61.7358 63.945 58.6799 64.6075ZM41.3957 26.7704C42.8353 26.7704 48.947 26.3817 48.267 27.1148C47.5869 27.8479 42.4025 28.2542 41.4045 28.2807C40.4065 28.3072 37.7922 28.528 35.8138 28.2807C33.8355 28.0334 35.2839 26.7439 41.3957 26.7704ZM22.9898 24.8803C21.6208 24.1914 20.0045 25.1717 19.6424 24.6153C19.2715 24.0501 19.8632 24.05 19.8632 24.05C20.2518 24.0236 24.8798 23.6614 24.924 24.8803C24.977 26.0991 24.3587 25.5692 22.9898 24.8803ZM20.8612 57.4357C20.8612 57.4357 26.5049 64.6516 32.5548 68.211C32.5548 68.211 25.5952 66.4357 20.8612 57.4357ZM30.285 78.2885C24.8975 80.6644 9.99786 86.2728 12.8241 84.8067C15.7033 83.314 34.6039 76.3896 30.285 78.2885Z" fill="#E72C37"/>
<path d="M182.893 64.6075C176.561 65.9764 179.749 67.0098 177.585 67.2571C173.717 67.6987 178.142 66.5682 174.317 66.7007C164.717 67.0451 158.226 62.6379 153.624 57.2414C156.044 52.7193 158.243 43.0216 159.48 34.6663C163.534 34.2954 166.404 33.9068 166.678 33.6241C169.946 30.1973 175.686 32.2375 180.253 27.4063C180.924 26.6997 173.461 27.3356 174.264 26.8764C175.36 26.2581 183.626 27.1413 183.741 26.5054C183.98 25.1982 185.26 23.9971 184.607 23.8557C183.953 23.7144 171.827 23.7498 171.368 23.8292C170.899 23.9087 171.968 24.3768 170.846 24.527C167.967 24.9156 161.997 24.6241 160.504 24.5447C160.566 22.7517 160.495 21.3739 160.266 20.6497C159.144 17.0285 153.235 13.893 147.636 15.0589C146.532 15.2885 147.08 18.7684 147.724 19.6075C148.016 20.1109 148.281 21.0206 148.501 22.213C143.715 22.2924 138.733 22.2924 130.467 21.9921C130.255 21.9921 130.043 21.948 129.839 21.895L127.623 21.2856C127.437 21.2326 127.243 21.3386 127.199 21.524C126.678 23.5201 124.231 33.8273 129.566 35.2316C132.48 36 141.356 35.8499 149.694 35.3818C149.985 41.7763 150.074 48.5152 150.109 52.4632C145.808 45.7596 143.67 39.1884 141.683 39.0648C140.588 38.9941 128.347 41.7498 131.367 45.6359C140.252 57.0913 145.755 70.7988 161.317 72.1148C161.988 72.1678 148.166 76.3366 150.074 76.107C151.284 75.9657 156.857 75.3121 155.488 75.7007C145.605 78.474 121.679 88.5162 124.425 88.472C132.524 88.3396 137.567 91.3425 147.786 87.8449C158.473 84.1884 169.513 85.8754 173.646 80.9205C177.78 75.9657 170.679 72.4063 172.154 71.6909C185.269 65.3405 185.94 63.9362 182.885 64.5986L182.893 64.6075ZM165.609 26.7704C167.049 26.7704 173.16 26.3817 172.48 27.1148C171.8 27.8479 166.616 28.2542 165.618 28.2807C164.62 28.3072 162.006 28.528 160.027 28.2807C158.049 28.0334 159.497 26.7439 165.609 26.7704ZM147.203 24.8803C145.834 24.1914 144.218 25.1717 143.856 24.6153C143.485 24.0501 144.077 24.05 144.077 24.05C144.465 24.0236 149.093 23.6614 149.137 24.8803C149.19 26.0991 148.572 25.5692 147.203 24.8803ZM145.075 57.4357C145.075 57.4357 150.718 64.6516 156.768 68.211C156.768 68.211 149.809 66.4357 145.075 57.4357ZM154.498 78.2885C149.111 80.6644 134.211 86.2728 137.038 84.8067C139.917 83.314 158.817 76.3896 154.498 78.2885Z" fill="#E72C37"/>
<path d="M122.385 37.104C118.914 17.841 101.1 15.3415 105.419 18.1413C117.793 26.1609 113.368 44.9205 113.509 41.1845C113.721 35.5407 113.041 31.3189 112.034 28.2277C111.919 28.3072 111.796 28.3602 111.646 28.3602C111.646 28.3602 110.647 28.6163 110.003 28.5898C111.778 34.9755 112.75 44.4701 110.197 54.3886L110.294 54.0442C110.736 54.0972 111.319 54.6094 111.628 53.7615C112.794 50.5466 112.935 45.0972 113.845 42.9068C114.163 47.5702 112.882 52.8695 112.167 55.7841C111.919 56.7998 110.577 56.6585 109.561 56.6497L109.658 56.314C107.035 64.9607 101.612 73.7929 91.6145 81.0795C89.8746 77.0785 87.0572 71.8322 84.2839 66.9568C84.9993 63.4416 85.2201 60.1825 85.5381 56.8793C89.0532 20.7115 85.6352 17.4612 71.3274 18.6447C68.5541 18.8744 75.8317 21.8862 75.7522 52.8253C74.8072 52.4455 72.5727 55.0952 69.6316 54.9362C65.5865 54.7154 62.8221 55.2542 63.4845 56.3317C68.033 62.0285 71.8396 66.7272 75.028 70.6045C74.8955 72.3621 74.7542 74.1727 74.5864 76.054C74.5864 76.0716 74.5864 76.0981 74.5864 76.1158C74.9926 76.3366 76.079 76.5132 76.8209 72.7684C77.2183 73.2453 77.5981 73.7046 77.969 74.1462C78.0573 75.7625 78.0397 77.4318 77.8012 78.5535C77.6157 79.419 77.4214 80.0726 77.2271 80.4877H78.4018C78.7286 80.4877 79.0289 80.3111 79.1967 80.0285C79.7354 79.1011 80.2124 78.209 80.654 77.3258C83.2594 80.3906 85.2554 82.6251 86.801 84.2326C86.4213 84.4622 86.0592 84.6919 85.6617 84.9127C85.07 85.2483 87.1367 89.7174 92.48 88.4985C125.123 81.0707 122.88 39.842 122.385 37.104ZM82.8178 61.6398C82.8178 61.8783 82.3232 62.1168 81.8993 62.1168C81.758 62.1168 81.6167 62.1168 81.4842 62.0991C81.3517 61.8695 81.2192 61.6487 81.0867 61.419C81.2722 61.2954 81.6078 61.2159 81.8993 61.1629C82.8178 60.9951 82.8178 61.3925 82.8178 61.6398ZM78.7551 42.5358C79.126 41.2287 79.1878 55.0599 80.1064 55.0599C80.8041 55.0599 80.6893 50.6968 81.0602 49.4691C81.2104 48.9745 81.5902 56.8881 80.495 60.4387C79.391 58.5751 78.4106 56.9499 77.6422 55.6958C77.6069 50.5819 78.3223 44.055 78.7551 42.5358ZM85.3968 72.8567C87.6224 75.2679 89.7598 78.9774 91.0404 81.4858C90.9168 81.5741 90.8019 81.6624 90.6695 81.7596C88.541 78.3415 85.07 72.5123 85.3968 72.8655V72.8567ZM102.186 81.4858C104.412 77.5113 110.647 74.6055 109.844 73.5103C109.844 73.5103 109.252 73.634 107.609 72.9362C108.846 72.7331 109.446 73.3072 112.396 72.106C113.695 71.5761 100.544 84.4181 102.186 81.4858Z" fill="#E72C37"/>
<path d="M74.4186 77.8557V77.8027C74.3479 78.5093 74.2861 79.1982 74.2154 79.9225C74.1889 80.2228 74.4186 80.4966 74.7277 80.4966H76.3351C76.1585 79.9931 76.0083 79.1276 75.8847 77.8292C75.8582 77.5554 74.4097 77.8557 74.4097 77.8557H74.4186Z" fill="#E72C37"/>
<path d="M262.064 75.8597C261.728 74.2787 261.322 72.159 260.986 69.9068L259.697 69.3857C260.032 71.8057 260.456 74.1639 261.03 76.7164C261.383 76.4249 261.931 75.9745 262.064 75.8685V75.8597Z" fill="#E72C37"/>
<path d="M260.942 69.0677C260.809 67.9813 260.818 66.1443 260.756 65.0756L259.237 64.3072C259.308 65.4553 259.423 67.2659 259.591 68.5731C259.591 68.5731 259.838 67.1865 259.926 67.2659C260.589 67.8754 260.942 69.0765 260.942 69.0765V69.0677Z" fill="#E72C37"/>
<path d="M259.184 63.7066L260.73 64.2012C260.695 62.9823 260.271 62.5849 260.509 60.3062C260.668 58.7694 260.898 57.3827 261.092 56.1462C260.792 55.4396 260.412 54.5918 260.05 53.7969C259.449 56.2257 259.016 59.3876 259.184 63.7066Z" fill="#E72C37"/>
<path d="M266.824 80.1345C266.736 78.8361 273.227 79.9401 274.64 79.3572C275.479 79.0128 269.456 78.6241 269.456 78.6241C269.456 78.6241 269.65 78.1914 268.334 77.9352C267.513 77.7763 266.656 77.6438 265.8 77.529C265.808 76.1953 265.773 75.003 265.711 74.261C265.658 73.7046 265.455 72.5476 266.011 72.6359C269.164 73.1482 269.588 49.9902 271.558 45.7861C272.035 44.7704 273.651 30.9392 270.18 29.3405C276.946 32.5643 276.23 26.3994 274.826 20.7027C273.881 16.8695 266.462 17.3288 255.192 21.0294C253.426 21.6035 262.92 21.3121 262.92 21.3121C262.92 21.3121 247.623 25.4985 245.521 25.0216C243.419 24.5447 245.583 28.4926 255.042 28.2542C264.501 28.0157 260.341 44.4171 260.341 44.4171C260.341 44.4171 262.461 43.4014 262.346 46.157C262.284 47.5525 261.578 49.0186 260.845 51.156C261.145 52.2336 261.322 53.3376 261.419 54.3091C262.019 50.9882 262.532 49.2571 262.479 49.6634C262.461 54.0442 261.419 57.1354 261.269 61.9136C261.207 64.0422 261.366 65.3229 261.613 67.3101L262.037 68.1668L261.693 68.7586C262.002 71.0638 262.417 73.1482 262.717 74.8086C263.017 74.1639 263.238 73.7576 262.973 75.2679C262.894 75.7272 263.962 75.5859 263.954 75.9127C263.945 76.2218 263.291 76.1158 262.982 76.4073C263.035 76.7694 263.07 77.105 263.088 77.3788C263.088 77.4583 263.088 77.529 263.088 77.5996C263.088 77.6614 263.088 77.7321 263.088 77.7939C263.07 78.2709 262.964 78.5447 262.708 78.5623C262.691 78.5005 262.567 77.9882 262.381 77.1757C257.965 76.84 254.177 76.946 254.177 76.946C254.177 76.946 254.592 75.2856 250.158 77.2905C247.703 78.8979 255.775 87.6153 257.93 88.1717C260.085 88.7282 272.45 88.2777 280.867 81.7772C281.821 81.0442 266.912 81.4328 266.833 80.1345H266.824Z" fill="#E72C37"/>
<path d="M480.17 75.9833C479.835 74.4024 479.428 72.2826 479.093 70.0304L477.803 69.5093C478.139 71.9293 478.563 74.2875 479.137 76.84C479.49 76.5486 480.038 76.0981 480.17 75.9922V75.9833Z" fill="#E72C37"/>
<path d="M479.04 69.1825C478.907 68.0962 478.916 66.2591 478.854 65.1904L477.335 64.422C477.406 65.5702 477.521 67.3808 477.688 68.6879C477.688 68.6879 477.936 67.3013 478.024 67.3808C478.686 67.9902 479.04 69.1914 479.04 69.1914V69.1825Z" fill="#E72C37"/>
<path d="M477.282 63.8214L478.828 64.316C478.792 63.0972 478.368 62.6997 478.607 60.421C478.766 58.8842 478.995 57.4975 479.19 56.261C478.89 55.5545 478.51 54.7066 478.148 53.9117C477.547 56.3405 477.114 59.5025 477.282 63.8214Z" fill="#E72C37"/>
<path d="M484.922 80.2493C484.833 78.9509 491.325 80.055 492.738 79.472C493.577 79.1276 487.554 78.739 487.554 78.739C487.554 78.739 487.748 78.3062 486.432 78.0501C485.611 77.8911 484.754 77.7586 483.897 77.6438C483.906 76.3101 483.871 75.1178 483.809 74.3759C483.756 73.8194 483.553 72.6624 484.109 72.7507C487.262 73.263 487.686 50.105 489.656 45.9009C490.133 44.8852 491.749 31.054 488.278 29.4553C495.043 32.6791 494.328 26.5142 492.924 20.8175C491.979 16.9843 484.56 17.4436 473.29 21.1443C471.524 21.7184 481.018 21.4269 481.018 21.4269C481.018 21.4269 465.721 25.6133 463.619 25.1364C461.517 24.6595 463.681 28.6075 473.14 28.369C482.599 28.1305 478.439 44.5319 478.439 44.5319C478.439 44.5319 480.559 43.5162 480.444 46.2718C480.382 47.6673 479.676 49.1335 478.943 51.2709C479.243 52.3484 479.419 53.4524 479.517 54.4239C480.117 51.103 480.629 49.3719 480.576 49.7782C480.559 54.159 479.517 57.2502 479.366 62.0285C479.305 64.157 479.464 65.4377 479.711 67.4249L480.135 68.2816L479.79 68.8734C480.1 71.1786 480.515 73.263 480.815 74.9235C481.115 74.2787 481.336 73.8724 481.071 75.3827C480.992 75.842 482.06 75.7007 482.051 76.0275C482.043 76.3366 481.389 76.2306 481.08 76.5221C481.133 76.8842 481.168 77.2198 481.186 77.4936C481.186 77.5731 481.186 77.6438 481.186 77.7144C481.186 77.7763 481.186 77.8469 481.186 77.9087C481.168 78.3857 481.062 78.6595 480.806 78.6771C480.788 78.6153 480.665 78.1031 480.479 77.2905C476.063 76.9549 472.274 77.0609 472.274 77.0609C472.274 77.0609 472.689 75.4004 468.256 77.4053C465.8 79.0128 473.873 87.7301 476.028 88.2866C478.183 88.843 490.548 88.3925 498.965 81.8921C499.919 81.159 485.01 81.5476 484.931 80.2493H484.922Z" fill="#E72C37"/>
<path d="M236.857 42.7566C236.989 41.6968 236.857 37.3778 237.007 33.5976C237.157 29.8175 243.896 14.8381 242.483 15.1737C241.829 15.3238 236.76 22.6722 237.175 21.4887C237.917 19.369 239.153 17.2404 240.187 15.2797C238.835 15.421 238.544 14.2816 238.897 13.8577C239.153 13.5574 240.319 13.4426 241.114 13.3984C241.741 12.0029 242.112 10.7488 241.927 9.69774C241.494 7.32188 245.133 -2.38469 243.137 0.574092C230.772 18.8744 225.375 35.3906 223.556 48.8773C220.588 48.736 217.992 48.6477 217.612 48.7272C216.667 48.9303 217.815 48.1178 217.541 47.9235C217.347 47.7821 214.865 47.6585 211.438 47.5437C214.432 24.5093 202.341 16.2071 190.93 20.1639C189.288 20.738 199.78 25.8695 199.462 47.2257C194.066 47.0932 189.464 46.9784 189.085 46.8459C188.484 46.6428 187.468 45.5034 186.391 45.9715C185.313 46.4396 183.98 48.0913 184.783 50.3435C186.25 54.4593 191.443 59.3611 193.792 59.9617C194.596 60.1649 196.274 60.103 198.19 59.9087C196.945 67.054 194.684 75.4357 191.01 85.2836C189.932 88.1717 195.029 84.7448 201.237 60.3945C201.75 58.3984 202.598 62.2404 202.218 63.4328C201.838 64.6251 201.131 61.8871 199.868 69.1295C199.718 70.0128 203.304 70.7988 199.868 71.7085C199.197 71.8852 199.029 69.6595 193.289 85.9284C193.289 85.9284 189.659 95.3523 190.771 95.5996C193.068 96.103 199.798 78.0236 199.568 77.6084C198.217 75.1796 199.63 73.0245 199.771 74.2787C200.054 76.8754 202.103 77.2463 202.606 76.0805C205.521 69.6153 207.658 63.7507 209.151 58.4426C212.074 58.3719 217.718 58.3454 222.814 58.3366C222.523 72.6447 226.188 82.1482 227.981 84.7007C229.579 86.9617 233.916 84.0294 236.133 82.2895C236.989 81.6183 237.475 80.6026 237.475 79.5162C237.458 75.0206 236.583 62.4612 236.027 59.0167C235.338 54.7772 242.359 55.4661 242.359 53.8145C242.359 52.843 240.513 53.7792 239.118 53.3641C238.279 53.1168 238.058 52.0128 237.502 52.1894C236.018 52.6752 234.746 50.9529 236.089 50.6084C237.431 50.264 237.846 50.1227 237.74 49.7164C237.634 49.3101 235.294 49.6104 235.152 49.3719C235.011 49.1335 234.843 47.1286 234.949 46.7488C235.055 46.369 235.815 47.0932 235.983 46.9519C236.159 46.8106 235.841 42.6418 235.841 42.368C235.841 42.0942 236.769 43.4014 236.848 42.7743L236.857 42.7566ZM216.835 53.0196C215.89 53.1786 214.883 52.472 214.777 51.6418C214.706 51.0854 215.033 50.423 215.395 50.3788C215.89 50.3258 216.155 51.4387 216.711 51.4033C217.223 51.368 217.382 50.4053 217.789 50.4406C218.062 50.4671 218.283 50.9264 218.31 51.2973C218.363 52.0393 217.683 52.8695 216.826 53.0196H216.835ZM221.586 52.2512C221.295 52.2777 220.677 52.2601 220.606 52.0216C220.544 51.792 220.995 51.3857 221.472 51.3062C222.028 51.209 222.646 51.5446 222.637 51.792C222.629 52.0393 221.993 52.2071 221.586 52.2424V52.2512ZM230.021 48.524C230.021 48.6565 229.703 48.948 229.341 49.16C228.979 49.1423 228.608 49.1158 228.228 49.0981C228.166 48.9657 228.14 48.7802 228.157 48.524C228.988 37.7311 233.819 23.5908 235.082 20.0314C235.099 19.9872 235.17 20.0049 235.152 20.0491C233.156 27.8567 230.392 37.7134 230.03 48.5152L230.021 48.524Z" fill="#E72C37"/>
<path d="M398.015 105.96C374.495 91.21 366.926 59.7056 366.714 55.1658C366.617 53.1079 364.886 52.2159 364.294 52.2159C364.294 52.2159 351.991 53.4082 353.201 56.6408C368.763 98.1786 382.329 104.697 382.541 104.176C382.585 104.07 382.629 103.99 382.682 103.911C380.501 101.376 375.776 95.7674 375.369 94.3543L383.822 103.169C385.032 103.072 386.542 104.255 386.816 104.785C387.213 105.545 386.56 106.799 386.939 106.887C395.913 109.025 397.635 107.567 398.191 106.702C398.35 106.454 398.262 106.11 398.015 105.951V105.96ZM369.752 79.1099C370.265 78.8714 371.218 79.4985 371.351 80.2934C371.43 80.7615 371.254 81.4416 370.759 81.5918C370.256 81.7507 369.735 81.265 369.514 80.8852C369.161 80.2669 369.284 79.3307 369.752 79.1099ZM373.232 92.1816C371.951 90.8744 370.106 86.5378 368.224 82.0864C365.69 76.0893 363.217 69.8273 363.217 69.8273C363.217 69.8273 365.99 75.8155 368.807 81.6359C371.792 87.8008 374.778 93.7713 373.223 92.1904L373.232 92.1816ZM381.057 98.8234C375.599 93.0029 371.766 84.683 372.473 84.5594C373.144 84.4445 374.778 87.5888 376.615 91.0245C379.9 97.1629 385.668 103.743 381.057 98.8234ZM392.459 104.776C392.371 105.094 391.656 105.315 391.205 105.015C390.764 104.723 390.666 104.017 390.914 103.805C391.152 103.602 391.682 103.893 391.788 103.946C392.062 104.096 392.548 104.467 392.468 104.767L392.459 104.776Z" fill="#E72C37"/>
<path d="M333.055 59.0697C331.925 59.0079 326.935 55.1394 326.882 48.2679C326.864 45.4769 338.54 45.4946 340.35 45.2826C342.099 45.0707 344.502 43.5427 364.904 43.0923C367.191 43.0393 364.789 41.5643 366.299 41.5025C369.814 41.3611 382.285 40.9725 382.373 44.4877C382.417 46.0334 391.576 44.0903 391.629 44.9382C391.682 45.7861 386.507 45.7861 384.113 45.9362C381.72 46.0864 363.861 45.7861 363.013 46.0334C362.166 46.2807 349.871 47.3317 349.377 47.8263C348.317 48.895 354.941 48.8067 355.224 48.3297C355.542 47.7998 369.028 48.2326 369.222 47.6055C369.505 46.6958 383.53 46.5103 383.786 46.8548C384.034 47.1992 383.866 48.0294 380.651 48.6124C379.079 48.895 380.995 50.0873 380.589 50.3346C380.183 50.5819 376.385 49.9284 376.323 50.4583C376.2 51.5182 375.069 51.2974 374.592 51.474C374.115 51.6506 375.599 52.3042 371.192 52.2159C366.785 52.1276 351.24 53.3023 347.345 55.9608C346.727 56.3847 342.223 51.2974 339.865 59.1757C339.741 59.5819 335.846 59.2022 333.073 59.0609L333.055 59.0697Z" fill="#E72C37"/>
<path d="M348.193 19.5986C347.46 17.1786 336.367 16.9755 334.831 18.6536C334.521 18.9892 335.034 20.4553 335.767 22.9637L337.48 23.158L337.701 24.1825L336.067 23.9971C336.924 27.0353 337.948 31.3101 338.372 36.7331C338.469 37.9696 338.134 67.0893 338.531 67.9814C338.929 68.8734 338.831 73.7576 339.132 74.1551C339.432 74.5525 338.531 77.3435 339.432 78.4387C340.324 79.5339 340.722 88.3925 340.978 88.8871C341.225 89.3817 342.267 89.3729 342.673 89.3729C343.08 89.3729 342.62 82.6605 341.931 81.9627C341.234 81.265 341.931 74.5437 341.931 74.2522C341.931 73.9519 341.181 74.4024 340.889 74.0049C340.589 73.6075 340.836 62.2139 340.942 61.8606C341.039 61.5162 341.64 61.9136 341.94 61.6575C342.241 61.4014 342.188 58.1246 343.283 57.63C344.378 57.1354 342.735 62.2051 342.982 62.7527C343.23 63.3003 344.528 63.4504 345.076 63.6447C345.623 63.8479 345.226 64.8901 344.926 64.9872C344.625 65.0844 343.133 64.0952 342.788 64.2895C342.444 64.4926 342.638 68.7674 342.788 69.6153C342.938 70.4632 343.936 69.7125 344.334 69.7655C344.731 69.8184 345.279 70.0128 345.129 70.6575C344.979 71.3023 343.839 70.5074 343.583 70.6045C343.336 70.7017 343.53 71.7969 343.583 72.1502C343.636 72.4946 344.581 72.3533 344.828 72.3974C345.076 72.4504 345.429 73.3425 345.226 74.0402C345.023 74.738 343.936 73.8371 343.636 74.3847C343.336 74.9323 343.583 78.0147 343.583 78.6153C343.583 79.2159 344.979 78.2179 345.279 78.5182C345.579 78.8185 345.676 81.2561 345.182 81.9539C344.687 82.6516 343.989 81.3091 343.742 82.157C343.318 83.6055 343.989 84.7448 344.387 84.842C344.784 84.9392 344.042 86.7321 344.749 87.4475C345.146 87.8449 347.796 87.5535 347.796 86.1845C347.796 84.8155 346.957 79.1364 346.957 79.1364C346.957 79.1364 347.584 79.7635 348.008 79.1364C348.432 78.5093 347.69 36.6359 348.008 37.7929C348.326 38.95 348.741 38.1109 348.953 37.7929C349.165 37.475 348.953 22.0098 348.22 19.5898L348.193 19.5986ZM341.614 40.7164C341.773 40.7429 341.887 40.9902 341.852 41.1933C341.825 41.3258 341.728 41.5113 341.552 41.5201C341.384 41.5201 341.251 41.3611 341.225 41.2198C341.172 40.9725 341.428 40.6811 341.614 40.7164ZM341.463 44.8764C341.198 44.841 341.11 44.3023 341.11 44.2493C341.057 43.8783 341.154 43.3749 341.375 43.3307C341.622 43.2777 342.046 43.7547 342.002 44.2228C341.967 44.5584 341.693 44.9117 341.463 44.8764Z" fill="#E72C37"/>
<path d="M372.393 13.1776C358.377 26.4171 351.947 42.8714 351.258 44.7085C351.223 44.8057 351.258 44.9205 351.346 44.9823L352.415 45.7154C352.565 45.8214 352.76 45.8126 352.901 45.6977C356.849 42.6948 375.802 25.6133 380.651 21.0206C381.543 20.1727 374.424 11.2699 372.393 13.1865V13.1776ZM352.45 45.1501L352.026 44.8764C352.026 44.8764 358.43 33.8803 359.26 33.1207C360.09 32.3611 360.602 33.4563 360.602 33.8185C360.602 34.1806 352.45 45.159 352.45 45.159V45.1501Z" fill="#E72C37"/>
<path d="M384.943 46.9342C385.394 46.7311 386.074 47.3052 386.021 47.6938C385.968 48.1001 385.067 48.4446 384.723 48.1266C384.44 47.8528 384.546 47.1197 384.935 46.9342H384.943Z" fill="#E72C37"/>
<path d="M198.941 85.9549C198.252 85.8135 197.033 87.8361 197.475 88.4367C197.696 88.737 198.243 88.5692 198.394 88.896C198.57 89.2758 197.899 89.682 198.023 90.1855C198.146 90.6801 198.976 91.0687 199.4 90.8302C199.489 90.7861 199.771 90.5829 199.674 88.9931C199.586 87.5712 199.498 86.0785 198.941 85.9637V85.9549Z" fill="#E72C37"/>
<path d="M78.4724 81.0177C77.7924 81.2738 77.4921 80.9647 77.2006 81.1943C76.9269 81.4063 76.971 81.8656 77.0505 82.6958C77.0858 83.0756 77.1565 83.3317 77.342 83.5525C77.4214 83.6408 77.5804 83.8351 77.7836 83.8175C78.0838 83.7998 78.3488 83.3582 78.287 83.0226C78.2252 82.6869 77.8454 82.6163 77.8719 82.4043C77.8984 82.157 78.3841 82.1923 78.7286 81.7861C79.0024 81.4593 79.073 80.9735 78.9317 80.8675C78.8434 80.8057 78.7197 80.9117 78.4636 81.0177H78.4724Z" fill="#E72C37"/>
<path d="M436.973 41.7939C438.748 42.1384 438.995 42.7831 443.031 45.3975C443.164 45.4858 443.358 45.6094 443.473 45.8391C444.127 47.0932 441.813 49.4779 441.071 50.2463C438.827 52.5604 437.997 52.2424 436.575 54.0795C435.242 55.7929 435.763 56.3317 434.57 58.0893C432.583 61.0039 428.891 62.8057 427.982 62.0108C427.222 61.3572 428.264 58.84 429.05 56.9323C429.775 55.1747 430.146 54.2915 430.746 53.3729C431.479 52.2424 432.133 51.5976 431.903 50.9706C431.647 50.2463 430.578 50.4495 430.207 49.7252C429.836 48.9833 430.631 48.1973 431.629 46.2542C433.042 43.4985 432.751 42.5358 433.855 41.8911C434.747 41.37 435.692 41.5554 436.973 41.8028V41.7939Z" fill="#E72C37"/>
<path d="M451.537 35.3817C451.978 35.4082 452.323 35.7969 452.358 36.2031C452.411 36.7242 451.978 37.2542 451.448 37.2365C450.963 37.2188 450.565 36.7596 450.592 36.265C450.618 35.7704 451.042 35.3464 451.537 35.3817Z" fill="#E72C37"/>
<path d="M456.783 29.314C457.569 29.314 457.975 30.0471 457.719 28.8459C457.101 25.8518 451.766 21.1708 444.71 19.3425C437.653 17.5142 431.859 19.1305 431.285 19.5545C430.711 19.9696 431.7 21.1708 431.179 21.5417C428.962 23.0962 426.33 25.6928 423.601 29.0667C419.106 34.631 416.906 39.8508 416.023 42.1825C416.023 42.1825 412.058 52.6133 414.177 62.2228C414.283 62.7262 414.575 64.1658 415.776 65.1904C416.385 65.7115 417.039 65.9323 417.595 66.1178C418.735 66.4975 420.634 63.9892 420.748 62.7792C420.863 61.5604 420.669 58.8665 422.117 58.054C423.557 57.2414 423.371 53.1698 423.486 51.8979C423.601 50.6261 424.705 48.6477 424.935 48.2856C425.279 47.7468 425.447 44.5054 425.783 43.8695C435.674 25.1011 444.1 23.6261 446.9 23.476C449.7 23.3258 450.238 28.3513 452.358 30.5682C454.478 32.7851 452.605 42.686 452.358 43.419C452.111 44.1521 451.201 45.265 450.98 46.6693C450.76 48.0736 448.764 50.6614 448.543 51.3945C448.322 52.1364 449.505 53.9205 448.543 54.5741C445.946 56.3405 447.209 58.0451 447.209 58.0451C450.08 59.0785 449.408 56.5967 449.611 55.4485C449.823 54.3003 450.76 53.6202 450.574 52.7812C450.389 51.9421 451.016 51.315 451.749 50.6438C452.482 49.9725 452.482 50.0167 452.791 48.2414C453.1 46.4661 454.31 45.945 455.14 45.265C455.97 44.5849 454.928 41.9706 454.981 41.2993C455.034 40.6192 455.767 40.0451 455.97 37.5368C456.182 35.0285 454.663 31.5309 455.449 31.1158C456.235 30.7007 456.341 34.5074 458.214 34.3572C460.095 34.1982 455.97 29.3405 456.748 29.3405L456.783 29.314ZM425.041 34.2689C422.382 37.8194 421.649 38.7645 421.861 38.9676C422.064 39.1796 422.983 38.4642 423.636 38.897C423.91 39.0736 424.131 39.4534 424.034 39.7272C423.884 40.1776 422.859 39.7978 422.047 40.4514C421.499 40.893 421.216 41.5554 420.669 42.8714C419.953 44.6202 420.13 44.8852 420.201 44.9735C420.572 45.4239 421.225 45.318 421.587 45.7684C421.985 46.263 421.411 47.0137 421.278 47.2257C420.413 48.6477 419.459 48.9038 419.547 49.3896C419.68 50.1138 422.895 49.4161 422.259 50.3258C422.011 50.6791 421.481 50.211 420.554 50.3965C419.989 50.5113 419.424 50.6261 419.07 51.0147C418.24 51.9156 419.424 53.3288 418.708 54.9539C418.381 55.6958 417.64 56.526 417.224 56.4024C416.147 56.0667 416.783 48.9921 419.035 43.0569C420.687 38.6938 423.018 35.5142 424.749 33.4298C425.226 32.8646 425.579 33.5358 425.041 34.2601V34.2689Z" fill="#E72C37"/>
<path d="M454.001 48.6919C454.469 48.6654 454.902 49.3013 454.972 49.8489C455.061 50.5025 454.69 51.3062 454.186 51.3503C453.709 51.3857 453.232 50.7233 453.18 50.1138C453.127 49.4868 453.506 48.7184 454.001 48.6919Z" fill="#E72C37"/>
<path d="M460.89 38.9941C461.014 39.0648 462.135 39.6654 462.012 40.5662C461.897 41.3965 460.81 41.9529 460.21 41.7233C459.768 41.5554 459.874 41.0785 459.388 40.7076C458.496 40.0363 457.136 40.8577 456.951 40.5221C456.801 40.2395 457.613 39.3297 458.638 38.95C458.92 38.844 459.927 38.473 460.881 38.9853L460.89 38.9941Z" fill="#E72C37"/>
<path d="M455.564 54.8832C456.439 55.0245 457.958 52.8695 458.443 50.7762C458.664 49.8135 458.655 48.9303 459.406 48.1619C459.803 47.7468 460.121 47.6938 460.333 47.2345C460.66 46.5456 460.554 45.4328 459.883 45.0177C459.132 44.5496 458.002 45.1766 457.454 45.7949C457.18 46.104 457.03 46.422 456.642 48.5859C456.2 51.0147 456.271 51.2709 455.891 51.8273C455.37 52.5868 454.822 52.7282 454.752 53.3906C454.69 54.0177 455.07 54.8126 455.564 54.892V54.8832Z" fill="#E72C37"/>
</g>
<defs>
<clipPath id="clip0_160_2">
<rect width="499" height="108" fill="white"/>
</clipPath>
</defs>
</svg>
